**ABCDEFGHIJKLMNOPQRSTUVWXYZabcdefghijklmnopqrstuvwxyz**************************
**PARASOLID !"#$%&'()*+,-./:;<=>?@[\]^_`{|}~0123456789**************************
**PART1;
MC=unknown;
MC_MODEL=unknown;
MC_ID=unknown;
OS=unknown;
OS_RELEASE=unknown;
FRU=Parasolid 37.1.212;
APPL=Onshape;
SITE=unknown;
USER=unknown;
FORMAT=text;
GUISE=transmit;
KEY=BTGapi::writeModels_.xmt;
FILE=BTGapi::writeModels_.xmt;
DATE=2026-03-22T15:42:17 (UTC);
**PART2;
SCH=SCH_3701212_37102;
USFLD_SIZE=0;
**PART3;
**END_OF_HEADER*****************************************************************
T51 : TRANSMIT FILE created by modeller version 370121223 SCH_3701212_37102_1300
6239 0 12 36 CCCI7 lattice222 0 CCCI4 mesh1006 0 I8 polyline1008 0 CCCCCCCDI5 ow
ner1040 0 CCCI16 boundary_lattice222 0 CCCI13 boundary_mesh1006 0 I17 boundary_p
olyline1008 0 CCCA16 index_map_offset0 0 1 dA9 index_map82 0 A17 node_id_index_m
ap82 0 A20 schema_embedding_map82 0 A5 child12 0 A14 lowest_node_id0 0 1 dA16 me
sh_offset_data206 0 Z1 1673 2 3 0 0 0 0 0 0 0 1e3 1e-8 0 4 5 1 0 1 2 6 0 7 8 9 0
 0 10 11 12 0 0 0 0 0 0 0 81 255 1 2 1635 13 1 14 0 0 0 15 70 11 CI9 list_type0
 0 1 uI10 notransmit0 0 1 lCCCDCCDI12 finger_index0 0 1 dI12 finger_block1012 0
 CZ3 0 4 T1 0 0 5 20 1 16 16 13 255 6 1085 0 1 0 17 0 0 18 0 51 255 7 1048 0 19
 20 0 0 -.0230360713041557 -.016 .03799972629092005 0 1 0 .000524177472575199 0
 0 1 30 255 8 1084 0 21 22 0 0 +.0230360713041557 -.016 .03852390376349525 0 1 0
 29 255 9 869 0 23 24 0 -.01 -.013 .0524 19 9 CCCCCCI5 frame230 0 CA5 owner12 0
 Z10 372 0 1 18 0 25 0 V0 16 255 11 908 27 ?30 0 29 26 0 0 1 18 255 12 366 28 34
 0 35 32 ?1 81 1 28 1484 33 12 0 0 31 38 40 17 255 34 0 36 39 37 12 41 45 0 43 -
18 35 361 42 44 12 46 50 ?1 29 32 368 0 12 50 48 -.01 -.016 .0524 29 50 363 0 35
 47 32 .0694 -.016 .0524 29 48 904 0 49 32 51 .0230360713041557 -.013 .038523903
76349525 18 49 828 55 52 53 0 48 ?1 29 51 903 0 53 48 54 .0366646855911109 -.013
 .03852390376349525 18 53 824 57 60 59 49 51 ?1 29 54 902 0 59 51 56 .0371888630
636861 -.013 .03799972629092005 18 59 820 58 61 62 53 54 ?1 29 56 901 0 62 54 64
 .0371888630636861 -.013 .02437111200396485 18 62 816 63 65 67 59 56 ?1 29 64 90
0 0 67 56 70 .0366646855911109 -.013 .02384693453138965 18 67 812 69 66 68 62 64
 ?1 29 70 899 0 68 64 75 .0230360713041557 -.013 .02384693453138965 18 68 808 71
 73 72 67 70 ?1 29 75 898 0 72 70 74 .0225118938315805 -.013 .02437111200396485
 18 72 804 76 80 77 68 75 ?1 29 74 897 0 77 75 78 .0225118938315805 -.013 .03799
972629092005 18 77 800 79 81 85 72 74 ?1 29 78 896 0 85 74 83 .00306490959904059
 -.013 .01855274205838015 18 85 796 82 84 89 77 78 ?1 29 83 895 0 89 78 90 .0166
935238859958 -.013 .01855274205838015 18 89 792 87 88 86 85 83 ?1 29 90 894 0 86
 83 93 .017217701358571 -.013 .01802856458580495 18 86 788 95 91 94 89 90 ?1 29
 93 893 0 94 90 92 .017217701358571 -.013 .00439995029884973 18 94 784 96 100 98
 86 93 ?1 29 92 892 0 98 93 97 .0166935238859958 -.013 .00387577282627453 18 98
 780 99 101 105 94 92 ?1 29 97 891 0 105 92 103 .00306490959904059 -.013 .003875
77282627453 18 105 776 102 104 106 98 97 ?1 29 103 890 0 106 97 110 .00254073212
646539 -.013 .00439995029884973 18 106 772 107 108 109 105 103 ?1 29 110 889 0 1
09 103 112 .00254073212646539 -.013 .01802856458580495 18 109 768 115 114 111 10
6 110 ?1 29 112 888 0 111 110 113 .0230360713041557 -.013 .01855274205838015 18
 111 764 116 117 119 109 112 ?1 29 113 887 0 119 112 118 .0366646855911109 -.013
 .01855274205838015 18 119 760 120 122 125 111 113 ?1 29 118 886 0 125 113 124 .
0371888630636861 -.013 .01802856458580495 18 125 756 121 123 130 119 118 ?1 29 1
24 885 0 130 118 126 .0371888630636861 -.013 .00439995029884973 18 130 752 128 1
27 129 125 124 ?1 29 126 884 0 129 124 131 .0366646855911109 -.013 .003875772826
27453 18 129 748 135 132 133 130 126 ?1 29 131 883 0 133 126 134 .02303607130415
57 -.013 .00387577282627453 18 133 744 136 140 138 129 131 ?1 29 134 882 0 138 1
31 137 .0225118938315805 -.013 .00439995029884973 18 138 740 139 144 145 133 134
 ?1 29 137 881 0 145 134 142 .0225118938315805 -.013 .01802856458580495 18 145 7
36 143 141 148 138 137 ?1 29 142 880 0 148 137 150 .04300723300927085 -.013 .018
55274205838015 18 148 732 146 149 147 145 142 ?1 29 150 879 0 147 142 151 .05663
5847296226 -.013 .01855274205838015 18 147 728 155 153 152 148 150 ?1 29 151 878
 0 152 150 154 .0571600247688012 -.013 .01802856458580495 18 152 724 156 160 158
 147 151 ?1 29 154 877 0 158 151 157 .0571600247688012 -.013 .00439995029884973
 18 158 720 159 161 165 152 154 ?1 29 157 876 0 165 154 162 .056635847296226 -.0
13 .00387577282627453 18 165 716 163 164 167 158 157 ?1 29 162 875 0 167 157 170
 .04300723300927085 -.013 .00387577282627453 18 167 712 169 166 168 165 162 ?1 2
9 170 874 0 168 162 171 .04248305553669565 -.013 .00439995029884973 18 168 708 1
72 174 173 167 170 ?1 29 171 873 0 173 170 175 .04248305553669565 -.013 .0180285
6458580495 18 173 704 177 180 179 168 171 ?1 29 175 872 0 179 171 176 -.01 -.013
 -.01 18 179 700 178 30 185 173 175 ?1 29 176 871 0 185 175 24 .0694 -.013 -.01
 18 185 696 181 183 182 179 176 ?1 29 24 870 0 182 176 9 .0694 -.013 .0524 18 18
2 692 38 184 23 185 24 ?1 81 1 38 1485 33 182 0 0 28 42 186 17 184 0 36 37 39 18
2 190 187 0 188 +18 23 688 31 41 189 182 9 ?1 81 1 31 1483 33 23 0 0 191 28 195
 17 41 0 193 192 43 23 34 45 0 194 +18 189 191 199 200 197 23 198 ?1 81 1 199 14
16 33 189 0 0 55 57 196 17 200 0 203 205 201 189 52 21 0 204 -18 197 196 202 206
 210 189 208 ?1 29 198 193 0 189 0 208 .0230360713041557 -.016 .0385239037634952
5 29 208 198 0 197 198 207 .0366646855911109 -.016 .03852390376349525 29 207 203
 0 210 208 209 .0371888630636861 -.016 .03799972629092005 18 210 201 211 215 213
 197 207 ?1 29 209 208 0 213 207 212 .0371888630636861 -.016 .02437111200396485
 18 213 206 214 216 220 210 209 ?1 29 212 213 0 220 209 217 .0366646855911109 -.
016 .02384693453138965 18 220 211 218 219 222 213 212 ?1 29 217 218 0 222 212 22
5 .0230360713041557 -.016 .02384693453138965 18 222 216 224 221 223 220 217 ?1 2
9 225 223 0 223 217 226 .0225118938315805 -.016 .02437111200396485 18 223 221 22
7 229 228 222 225 ?1 29 226 228 0 228 225 230 .0225118938315805 -.016 .037999726
29092005 18 228 226 232 235 234 223 226 ?1 29 230 233 0 234 226 231 .00306490959
904059 -.016 .01855274205838015 18 234 231 233 240 236 228 230 ?1 29 231 238 0 2
36 230 238 .0166935238859958 -.016 .01855274205838015 18 236 236 237 239 241 234
 231 ?1 29 238 243 0 241 231 245 .017217701358571 -.016 .01802856458580495 18 24
1 241 242 243 244 236 238 ?1 29 245 248 0 244 238 246 .017217701358571 -.016 .00
439995029884973 18 244 246 250 248 247 241 245 ?1 29 246 253 0 247 245 249 .0166
935238859958 -.016 .00387577282627453 18 247 251 254 255 252 244 246 ?1 29 249 2
58 0 252 246 253 .00306490959904059 -.016 .00387577282627453 18 252 256 251 258
 260 247 249 ?1 29 253 263 0 260 249 256 .00254073212646539 -.016 .0043999502988
4973 18 260 261 259 257 261 252 253 ?1 29 256 268 0 261 253 265 .002540732126465
39 -.016 .01802856458580495 18 261 266 263 262 264 260 256 ?1 29 265 273 0 264 2
56 266 .0230360713041557 -.016 .01855274205838015 18 264 271 270 268 267 261 265
 ?1 29 266 278 0 267 265 269 .0366646855911109 -.016 .01855274205838015 18 267 2
76 271 275 272 264 266 ?1 29 269 283 0 272 266 273 .0371888630636861 -.016 .0180
2856458580495 18 272 281 274 277 280 267 269 ?1 29 273 288 0 280 269 279 .037188
8630636861 -.016 .00439995029884973 18 280 286 276 278 281 272 273 ?1 29 279 293
 0 281 273 282 .0366646855911109 -.016 .00387577282627453 18 281 291 284 283 285
 280 279 ?1 29 282 298 0 285 279 287 .0230360713041557 -.016 .00387577282627453
 18 285 296 290 289 286 281 282 ?1 29 287 303 0 286 282 288 .0225118938315805 -.
016 .00439995029884973 18 286 301 295 291 293 285 287 ?1 29 288 308 0 293 287 29
2 .0225118938315805 -.016 .01802856458580495 18 293 306 294 296 300 286 288 ?1 2
9 292 313 0 300 288 297 .04300723300927085 -.016 .01855274205838015 18 300 311 2
98 299 301 293 292 ?1 29 297 318 0 301 292 305 .056635847296226 -.016 .018552742
05838015 18 301 316 303 302 304 300 297 ?1 29 305 323 0 304 297 309 .05716002476
88012 -.016 .01802856458580495 18 304 321 310 307 308 301 305 ?1 29 309 328 0 30
8 305 306 .0571600247688012 -.016 .00439995029884973 18 308 326 313 315 311 304
 309 ?1 29 306 333 0 311 309 314 .056635847296226 -.016 .00387577282627453 18 31
1 331 312 316 320 308 306 ?1 29 314 338 0 320 306 318 .04300723300927085 -.016 .
00387577282627453 18 320 336 317 319 321 311 314 ?1 29 318 343 0 321 314 325 .04
248305553669565 -.016 .00439995029884973 18 321 341 323 322 324 320 318 ?1 29 32
5 348 0 324 318 326 .04248305553669565 -.016 .01802856458580495 18 324 346 330 3
27 328 321 325 ?1 29 326 353 0 328 325 47 -.01 -.016 -.01 18 328 351 329 332 46
 324 326 ?1 29 47 358 0 46 326 50 .0694 -.016 -.01 18 46 356 191 335 35 328 47 ?
1 81 1 191 1482 33 46 0 0 181 31 334 17 335 0 331 333 190 46 44 336 0 337 -15 25
5 331 943 0 188 339 0 17 333 0 331 188 335 185 338 29 0 340 +17 190 0 331 335 18
8 35 184 187 0 39 -17 44 0 342 345 337 35 335 336 0 190 +16 336 181 344 ?44 341
 343 350 0 0 1 17 337 0 342 44 346 46 348 343 0 338 +15 342 10 0 346 347 0 17 34
6 0 342 337 345 328 43 349 0 0 -17 348 0 351 30 338 328 337 343 0 346 -16 343 17
6 355 ?337 336 349 352 0 0 1 17 338 0 351 348 340 46 333 29 0 0 -15 351 945 0 34
0 353 0 17 340 0 351 338 30 185 354 356 0 0 +16 29 907 360 ?333 11 187 358 0 0 1
 81 1 360 1520 33 29 0 0 27 357 359 16 187 906 364 ?184 29 45 365 0 0 1 30 358 1
051 0 29 365 26 0 +.0694 -.016 -.01 0 1 0 30 365 1050 0 187 362 358 0 +.0694 -.0
16 .0524 0 1 0 30 26 1052 0 11 358 363 0 +-.01 -.016 -.01 0 1 0 30 363 1053 0 36
1 26 368 0 +.04248305553669565 -.016 .01802856458580495 0 1 0 16 361 909 370 ?18
0 366 369 363 0 0 1 30 368 1054 0 366 363 367 0 +.04248305553669565 -.016 .00439
995029884973 0 1 0 16 366 910 371 ?174 375 361 368 0 0 1 30 367 1055 0 375 368 3
73 0 +.04300723300927085 -.016 .00387577282627453 0 1 0 16 375 911 372 ?166 374
 366 367 0 0 1 30 373 1056 0 374 367 376 0 +.056635847296226 -.016 .003875772826
27453 0 1 0 16 374 912 380 ?164 378 375 373 0 0 1 30 376 1057 0 378 373 377 0 +.
0571600247688012 -.016 .00439995029884973 0 1 0 16 378 913 379 ?161 381 374 376
 0 0 1 30 377 1058 0 381 376 385 0 +.0571600247688012 -.016 .01802856458580495 0
 1 0 16 381 914 382 ?160 383 378 377 0 0 1 30 385 1059 0 383 377 384 0 +.0566358
47296226 -.016 .01855274205838015 0 1 0 16 383 915 387 ?153 390 381 385 0 0 1 30
 384 1060 0 390 385 389 0 +.04300723300927085 -.016 .01855274205838015 0 1 0 16
 390 916 386 ?149 45 383 384 0 0 1 30 389 1061 0 388 384 391 0 +.022511893831580
5 -.016 .01802856458580495 0 1 0 16 388 917 392 ?141 394 393 389 0 0 1 30 391 10
62 0 394 389 395 0 +.0225118938315805 -.016 .00439995029884973 0 1 0 16 394 918
 397 ?144 400 388 391 0 0 1 30 395 1063 0 400 391 399 0 +.0230360713041557 -.016
 .00387577282627453 0 1 0 16 400 919 396 ?140 398 394 395 0 0 1 30 399 1064 0 39
8 395 405 0 +.0366646855911109 -.016 .00387577282627453 0 1 0 16 398 920 401 ?13
2 403 400 399 0 0 1 30 405 1065 0 403 399 402 0 +.0371888630636861 -.016 .004399
95029884973 0 1 0 16 403 921 404 ?127 406 398 405 0 0 1 30 402 1066 0 406 405 41
0 0 +.0371888630636861 -.016 .01802856458580495 0 1 0 16 406 922 407 ?123 408 40
3 402 0 0 1 30 410 1067 0 408 402 409 0 +.0366646855911109 -.016 .01855274205838
015 0 1 0 16 408 923 411 ?122 369 406 410 0 0 1 30 409 1068 0 369 410 415 0 +.02
30360713041557 -.016 .01855274205838015 0 1 0 16 369 924 413 ?117 361 408 409 0
 0 1 30 415 1069 0 412 409 414 0 +.00254073212646539 -.016 .01802856458580495 0
 1 0 16 412 925 419 ?114 420 21 415 0 0 1 30 414 1070 0 420 415 417 0 +.00254073
212646539 -.016 .00439995029884973 0 1 0 16 420 926 418 ?108 416 412 414 0 0 1 3
0 417 1071 0 416 414 423 0 +.00306490959904059 -.016 .00387577282627453 0 1 0 16
 416 927 425 ?104 421 420 417 0 0 1 30 423 1072 0 421 417 424 0 +.01669352388599
58 -.016 .00387577282627453 0 1 0 16 421 928 422 ?101 426 416 423 0 0 1 30 424 1
073 0 426 423 430 0 +.017217701358571 -.016 .00439995029884973 0 1 0 16 426 929
 428 ?100 427 421 424 0 0 1 30 430 1074 0 427 424 429 0 +.017217701358571 -.016
 .01802856458580495 0 1 0 16 427 930 431 ?91 435 426 430 0 0 1 30 429 1075 0 435
 430 433 0 +.0166935238859958 -.016 .01855274205838015 0 1 0 16 435 931 432 ?88
 393 427 429 0 0 1 30 433 1076 0 393 429 434 0 +.00306490959904059 -.016 .018552
74205838015 0 1 0 16 393 932 436 ?84 388 435 433 0 0 1 30 434 1077 0 440 433 437
 0 +.0225118938315805 -.016 .03799972629092005 0 1 0 16 440 933 438 ?81 439 341
 434 0 0 1 30 437 1078 0 439 434 442 0 +.0225118938315805 -.016 .024371112003964
85 0 1 0 16 439 934 445 ?80 444 440 437 0 0 1 30 442 1079 0 444 437 441 0 +.0230
360713041557 -.016 .02384693453138965 0 1 0 16 444 935 443 ?73 446 439 442 0 0 1
 30 441 1080 0 446 442 447 0 +.0366646855911109 -.016 .02384693453138965 0 1 0 1
6 446 936 449 ?66 448 444 441 0 0 1 30 447 1081 0 448 441 450 0 +.03718886306368
61 -.016 .02437111200396485 0 1 0 16 448 937 452 ?65 455 446 447 0 0 1 30 450 10
82 0 455 447 22 0 +.0371888630636861 -.016 .03799972629092005 0 1 0 16 455 938 4
54 ?61 451 448 450 0 0 1 30 22 1083 0 451 450 8 0 +.0366646855911109 -.016 .0385
2390376349525 0 1 0 16 451 939 453 ?60 21 455 22 0 0 1 81 1 453 1488 33 451 0 0
 460 443 456 17 60 0 458 457 459 53 461 451 0 465 +16 21 940 460 ?52 412 451 8 0
 0 1 81 1 460 1487 33 21 0 0 42 453 462 17 52 0 463 465 204 49 200 21 0 464 +15
 463 1009 0 465 466 0 17 465 0 463 461 52 53 464 470 0 468 +17 204 0 463 52 461
 189 206 467 0 469 -17 464 0 474 475 468 49 465 470 0 201 -15 474 539 0 475 472
 473 17 475 0 474 471 464 77 201 478 0 480 +17 468 0 474 464 476 53 457 479 0 0
 +16 470 680 477 ?465 479 478 481 0 0 1 17 201 0 203 200 81 49 475 478 0 0 -15 2
03 1011 0 201 19 0 17 81 0 203 201 205 77 235 440 0 475 +16 478 684 485 ?475 470
 0 483 0 0 1 81 1 485 1531 33 478 0 0 482 484 486 31 255 483 868 0 478 490 481 0
 +.0230360713041557 -.013 .03799972629092005 0 -1 0 0 0 -1 .000524177472575199 3
0 490 188 0 341 350 483 0 +.0297 -.016 .0524 1 0 0 30 481 867 0 470 483 488 0 +.
0298503784476333 -.013 .03852390376349525 1 0 0 31 488 866 0 479 481 487 0 +.036
6646855911109 -.013 .03799972629092005 0 -1 0 0 0 -1 .000524177472575199 16 479
 676 489 ?468 491 470 488 0 0 1 30 487 865 0 491 488 495 0 +.0371888630636861 -.
013 .03118541914744245 0 0 -1 16 491 672 492 ?493 494 479 487 0 0 1 31 495 864 0
 494 487 497 0 +.0366646855911109 -.013 .02437111200396485 0 -1 0 0 0 -1 .000524
1774725752 16 494 668 500 ?499 496 491 495 0 0 1 30 497 863 0 496 495 498 0 +.02
98503784476333 -.013 .02384693453138965 1 0 0 16 496 664 501 ?502 504 494 497 0
 0 1 31 498 862 0 504 497 503 0 +.0230360713041557 -.013 .02437111200396485 0 -1
 0 0 0 -1 .0005241774725752 16 504 660 505 ?507 510 496 498 0 0 1 30 503 861 0 5
10 498 509 0 +.0225118938315805 -.013 .03118541914744245 0 0 -1 16 510 656 506 ?
471 508 504 503 0 0 1 31 509 860 0 508 503 515 0 +.00306490959904059 -.013 .0180
2856458580495 0 -1 0 0 0 -1 .000524177472575199 16 508 652 511 ?513 512 510 509
 0 0 1 30 515 859 0 512 509 514 0 +.00987921674251819 -.013 .01855274205838015 1
 0 0 16 512 648 516 ?520 517 508 515 0 0 1 31 514 858 0 517 515 518 0 +.01669352
38859958 -.013 .01802856458580495 0 -1 0 0 0 -1 .0005241774725752 16 517 644 519
 ?521 525 512 514 0 0 1 30 518 857 0 525 514 523 0 +.017217701358571 -.013 .0112
1425744232732 0 0 -1 16 525 640 522 ?524 529 517 518 0 0 1 31 523 856 0 529 518
 530 0 +.0166935238859958 -.013 .00439995029884973 0 -1 0 0 0 -1 .00052417747257
5199 16 529 636 527 ?528 526 525 523 0 0 1 30 530 855 0 526 523 533 0 +.00987921
674251819 -.013 .00387577282627453 1 0 0 16 526 632 535 ?531 534 529 530 0 0 1 3
1 533 854 0 534 530 532 0 +.00306490959904059 -.013 .00439995029884973 0 -1 0 0
 0 -1 .000524177472575198 16 534 628 536 ?540 538 526 533 0 0 1 30 532 853 0 538
 533 537 0 +.00254073212646539 -.013 .01121425744232732 0 0 -1 16 538 624 539 ?5
41 545 534 532 0 0 1 31 537 852 0 545 532 543 0 +.0230360713041557 -.013 .018028
56458580495 0 -1 0 0 0 -1 .000524177472575201 16 545 620 542 ?544 546 538 537 0
 0 1 30 543 851 0 546 537 550 0 +.0298503784476333 -.013 .01855274205838015 1 0
 0 16 546 616 547 ?548 549 545 543 0 0 1 31 550 850 0 549 543 552 0 +.0366646855
911109 -.013 .01802856458580495 0 -1 0 0 0 -1 .0005241774725752 16 549 612 555 ?
554 551 546 550 0 0 1 30 552 849 0 551 550 553 0 +.0371888630636861 -.013 .01121
425744232732 0 0 -1 16 551 608 556 ?557 559 549 552 0 0 1 31 553 848 0 559 552 5
58 0 +.0366646855911109 -.013 .00439995029884973 0 -1 0 0 0 -1 .0005241774725751
99 16 559 604 560 ?562 565 551 553 0 0 1 30 558 847 0 565 553 564 0 +.0298503784
476333 -.013 .00387577282627453 1 0 0 16 565 600 561 ?563 570 559 558 0 0 1 31 5
64 846 0 570 558 566 0 +.0230360713041557 -.013 .00439995029884973 0 -1 0 0 0 -1
 .000524177472575199 16 570 596 568 ?567 569 565 564 0 0 1 30 566 845 0 569 564
 571 0 +.0225118938315805 -.013 .01121425744232732 0 0 -1 16 569 592 575 ?572 57
3 570 566 0 0 1 31 571 844 0 573 566 574 0 +.04300723300927085 -.013 .0180285645
8580495 0 -1 0 0 0 -1 .0005241774725752 16 573 588 576 ?580 578 569 571 0 0 1 30
 574 843 0 578 571 577 0 +.0498215401527484 -.013 .01855274205838015 1 0 0 16 57
8 584 579 ?584 585 573 574 0 0 1 31 577 842 0 585 574 582 0 +.056635847296226 -.
013 .0180285645858049 0 -1 0 0 0 -1 .000524177472575202 16 585 580 583 ?581 588
 578 577 0 0 1 30 582 841 0 588 577 590 0 +.0571600247688012 -.013 .011214257442
32732 0 0 -1 16 588 576 586 ?589 587 585 582 0 0 1 31 590 840 0 587 582 591 0 +.
056635847296226 -.013 .004399950298849735 0 -1 0 0 0 -1 .000524177472575202 16 5
87 572 595 ?593 592 588 590 0 0 1 30 591 839 0 592 590 594 0 +.0498215401527484
 -.013 .00387577282627453 1 0 0 16 592 568 596 ?600 598 587 591 0 0 1 31 594 838
 0 598 591 597 0 +.04300723300927085 -.013 .00439995029884973 0 -1 0 0 0 -1 .000
524177472575199 16 598 564 599 ?601 605 592 594 0 0 1 30 597 837 0 605 594 602 0
 +.04248305553669565 -.013 .01121425744232732 0 0 -1 16 605 560 603 ?604 607 598
 597 0 0 1 30 602 836 0 607 597 610 0 +-.01 -.013 .0212 -222400445638052e-30 0 1
 16 607 556 609 ?194 356 605 602 0 0 1 30 610 835 0 356 602 606 0 +.0297 -.013 -
.01 1 0 0 16 356 552 608 ?340 611 607 610 0 0 1 30 606 834 0 611 610 612 0 +.069
4 -.013 .0212 0 0 1 16 611 548 614 ?188 613 356 606 0 0 1 30 612 833 0 613 606 3
62 0 +.0297 -.013 .0524 1 0 0 16 613 544 615 ?617 620 611 612 0 0 1 30 362 1049
 0 45 612 365 0 +-.01 -.016 .0524 0 1 0 16 45 905 357 ?41 187 390 362 0 0 1 81 1
 357 1521 33 45 0 0 360 364 619 80 7 CCCCCDI12 legal_owners0 17 1 lCZ1 33 616 61
8 9000 0 0 0 0 3 6 0 0 0 FFTFTFTTFFFFFFFFF1 81 1 364 1522 33 187 0 0 357 477 625
 82 255 3 619 14 34 1 81 1 477 1523 33 470 0 0 364 621 623 82 3 625 14 35 1 81 1
 621 1524 33 467 0 0 477 501 622 82 3 623 14 36 1 16 467 16 621 ?206 624 620 626
 0 0 1 81 1 501 1525 33 496 0 0 621 630 627 82 3 622 14 37 1 81 1 630 1526 33 62
8 0 0 501 506 629 82 3 627 14 38 1 16 628 36 630 ?631 635 633 632 0 0 1 81 1 506
 1527 33 510 0 0 630 634 639 82 3 629 14 39 1 81 1 634 1528 33 640 0 0 506 492 6
37 82 3 639 14 40 1 16 640 46 634 ?638 636 635 643 0 0 1 81 1 492 1529 33 491 0
 0 634 482 645 82 3 637 14 41 1 81 1 482 1530 33 641 0 0 492 485 644 82 3 645 14
 42 1 16 641 26 482 ?216 633 624 642 0 0 1 82 3 644 14 43 1 17 216 0 646 650 648
 213 647 641 0 649 +16 633 31 651 ?655 628 641 653 0 0 1 16 624 21 652 ?459 641
 467 654 0 0 1 30 642 28 0 641 654 653 0 +.0371888630636861 -.016 .0311854191474
4245 0 0 -1 31 654 23 0 624 626 642 0 +.0366646855911109 -.016 .0379997262909200
5 0 -1 0 0 0 -1 .000524177472575199 31 653 33 0 633 642 632 0 +.0366646855911109
 -.016 .02437111200396485 0 -1 0 0 0 -1 .0005241774725752 30 632 38 0 628 653 65
6 0 +.0298503784476333 -.016 .02384693453138965 1 0 0 31 656 43 0 635 632 643 0
 +.0230360713041557 -.016 .02437111200396485 0 -1 0 0 0 -1 .0005241774725752 16
 635 41 660 ?657 640 628 656 0 0 1 30 643 48 0 640 656 658 0 +.0225118938315805
 -.016 .03118541914744245 0 0 -1 31 658 53 0 636 643 659 0 +.00306490959904059 -
.016 .01802856458580495 0 -1 0 0 0 -1 .000524177472575199 16 636 51 662 ?665 664
 640 658 0 0 1 30 659 58 0 664 658 661 0 +.00987921674251819 -.016 .018552742058
38015 1 0 0 16 664 56 663 ?239 666 636 659 0 0 1 31 661 63 0 666 659 667 0 +.016
6935238859958 -.016 .01802856458580495 0 -1 0 0 0 -1 .0005241774725752 16 666 61
 669 ?668 670 664 661 0 0 1 30 667 68 0 670 661 672 0 +.017217701358571 -.016 .0
1121425744232732 0 0 -1 16 670 66 675 ?248 674 666 667 0 0 1 31 672 73 0 674 667
 671 0 +.0166935238859958 -.016 .00439995029884973 0 -1 0 0 0 -1 .00052417747257
5199 16 674 71 673 ?680 676 670 672 0 0 1 30 671 78 0 676 672 678 0 +.0098792167
4251819 -.016 .00387577282627453 1 0 0 16 676 76 677 ?679 681 674 671 0 0 1 31 6
78 83 0 681 671 685 0 +.00306490959904059 -.016 .00439995029884973 0 -1 0 0 0 -1
 .000524177472575198 16 681 81 682 ?683 684 676 678 0 0 1 30 685 88 0 684 678 68
6 0 +.00254073212646539 -.016 .01121425744232732 0 0 -1 16 684 86 690 ?688 687 6
81 685 0 0 1 31 686 93 0 687 685 689 0 +.0230360713041557 -.016 .018028564585804
95 0 -1 0 0 0 -1 .000524177472575201 16 687 91 694 ?695 692 684 686 0 0 1 30 689
 98 0 692 686 693 0 +.0298503784476333 -.016 .01855274205838015 1 0 0 16 692 96
 691 ?275 698 687 689 0 0 1 31 693 103 0 698 689 700 0 +.0366646855911109 -.016
 .01802856458580495 0 -1 0 0 0 -1 .0005241774725752 16 698 101 696 ?699 697 692
 693 0 0 1 30 700 108 0 697 693 701 0 +.0371888630636861 -.016 .0112142574423273
2 0 0 -1 16 697 106 705 ?278 703 698 700 0 0 1 31 701 113 0 703 700 702 0 +.0366
646855911109 -.016 .00439995029884973 0 -1 0 0 0 -1 .000524177472575199 16 703 1
11 704 ?706 710 697 701 0 0 1 30 702 118 0 710 701 708 0 +.0298503784476333 -.01
6 .00387577282627453 1 0 0 16 710 116 707 ?709 711 703 702 0 0 1 31 708 123 0 71
1 702 715 0 +.0230360713041557 -.016 .00439995029884973 0 -1 0 0 0 -1 .000524177
472575199 16 711 121 712 ?713 714 710 708 0 0 1 30 715 128 0 714 708 717 0 +.022
5118938315805 -.016 .01121425744232732 0 0 -1 16 714 126 720 ?719 716 711 715 0
 0 1 31 717 133 0 716 715 718 0 +.04300723300927085 -.016 .01802856458580495 0 -
1 0 0 0 -1 .0005241774725752 16 716 131 721 ?722 724 714 717 0 0 1 30 718 138 0
 724 717 723 0 +.0498215401527484 -.016 .01855274205838015 1 0 0 16 724 136 725
 ?302 727 716 718 0 0 1 31 723 143 0 727 718 730 0 +.056635847296226 -.016 .0180
285645858049 0 -1 0 0 0 -1 .000524177472575202 16 727 141 729 ?726 728 724 723 0
 0 1 30 730 148 0 728 723 735 0 +.0571600247688012 -.016 .01121425744232732 0 0
 -1 16 728 146 731 ?315 733 727 730 0 0 1 31 735 153 0 733 730 732 0 +.056635847
296226 -.016 .004399950298849735 0 -1 0 0 0 -1 .000524177472575202 16 733 151 73
4 ?736 740 728 735 0 0 1 30 732 158 0 740 735 737 0 +.0498215401527484 -.016 .00
387577282627453 1 0 0 16 740 156 738 ?739 741 733 732 0 0 1 31 737 163 0 741 732
 745 0 +.04300723300927085 -.016 .00439995029884973 0 -1 0 0 0 -1 .0005241774725
75199 16 741 161 743 ?742 744 740 737 0 0 1 30 745 168 0 744 737 749 0 +.0424830
5553669565 -.016 .01121425744232732 0 0 -1 16 744 166 750 ?747 349 741 745 0 0 1
 30 749 173 0 349 745 352 0 +-.01 -.016 .0212 -222400445638052e-30 0 1 16 349 17
1 748 ?43 343 744 749 0 0 1 30 352 178 0 343 749 350 0 +.0297 -.016 -.01 1 0 0 3
0 350 183 0 336 352 490 0 +.0694 -.016 .0212 0 0 1 81 1 748 1592 33 349 0 0 609
 614 746 17 43 0 193 41 332 12 346 349 0 345 +15 193 947 0 192 17 0 17 332 0 193
 43 192 328 30 11 0 348 -17 345 0 342 346 44 12 39 341 0 0 -17 39 0 36 184 34 35
 345 341 0 0 +16 341 186 753 ?39 440 336 490 0 0 1 81 1 753 1590 33 341 0 0 615
 609 755 81 1 615 1589 33 613 0 0 355 753 751 81 1 609 1591 33 607 0 0 753 748 7
54 82 3 755 14 103 1 82 3 754 14 104 1 81 1 355 1588 33 343 0 0 608 615 752 82 3
 751 14 102 1 81 1 608 1587 33 356 0 0 734 355 756 82 3 752 14 101 1 81 1 734 15
86 33 733 0 0 595 608 760 82 3 756 14 100 1 81 1 595 1585 33 587 0 0 743 734 758
 82 3 760 14 99 1 81 1 743 1584 33 741 0 0 599 595 757 82 3 758 14 98 1 81 1 599
 1583 33 598 0 0 729 743 759 82 3 757 14 97 1 81 1 729 1582 33 727 0 0 583 599 7
61 82 3 759 14 96 1 81 1 583 1581 33 585 0 0 721 729 765 82 3 761 14 95 1 81 1 7
21 1580 33 716 0 0 576 583 763 82 3 765 14 94 1 81 1 576 1579 33 573 0 0 731 721
 762 82 3 763 14 93 1 81 1 731 1578 33 728 0 0 586 576 764 82 3 762 14 92 1 81 1
 586 1577 33 588 0 0 750 731 766 82 3 764 14 91 1 81 1 750 1576 33 744 0 0 603 5
86 770 82 3 766 14 90 1 81 1 603 1575 33 605 0 0 738 750 767 82 3 770 14 89 1 81
 1 738 1574 33 740 0 0 596 603 768 82 3 767 14 88 1 81 1 596 1573 33 592 0 0 725
 738 769 82 3 768 14 87 1 81 1 725 1572 33 724 0 0 579 596 772 82 3 769 14 86 1
 81 1 579 1571 33 578 0 0 704 725 775 82 3 772 14 85 1 81 1 704 1570 33 703 0 0
 560 579 774 82 3 775 14 84 1 81 1 560 1569 33 559 0 0 712 704 771 82 3 774 14 8
3 1 81 1 712 1568 33 711 0 0 568 560 773 82 3 771 14 82 1 81 1 568 1567 33 570 0
 0 696 712 776 82 3 773 14 81 1 81 1 696 1566 33 698 0 0 555 568 777 82 3 776 14
 80 1 81 1 555 1565 33 549 0 0 694 696 779 82 3 777 14 79 1 81 1 694 1564 33 687
 0 0 542 555 778 82 3 779 14 78 1 81 1 542 1563 33 545 0 0 705 694 780 82 3 778
 14 77 1 81 1 705 1562 33 697 0 0 556 542 782 82 3 780 14 76 1 81 1 556 1561 33
 551 0 0 720 705 785 82 3 782 14 75 1 81 1 720 1560 33 714 0 0 575 556 784 82 3
 785 14 74 1 81 1 575 1559 33 569 0 0 707 720 781 82 3 784 14 73 1 81 1 707 1558
 33 710 0 0 561 575 783 82 3 781 14 72 1 81 1 561 1557 33 565 0 0 691 707 790 82
 3 783 14 71 1 81 1 691 1556 33 692 0 0 547 561 786 82 3 790 14 70 1 81 1 547 15
55 33 546 0 0 673 691 788 82 3 786 14 69 1 81 1 673 1554 33 674 0 0 527 547 787
 82 3 788 14 68 1 81 1 527 1553 33 529 0 0 682 673 789 82 3 787 14 67 1 81 1 682
 1552 33 681 0 0 536 527 791 82 3 789 14 66 1 81 1 536 1551 33 534 0 0 669 682 7
95 82 3 791 14 65 1 81 1 669 1550 33 666 0 0 519 536 792 82 3 795 14 64 1 81 1 5
19 1549 33 517 0 0 662 669 793 82 3 792 14 63 1 81 1 662 1548 33 636 0 0 511 519
 794 82 3 793 14 62 1 81 1 511 1547 33 508 0 0 675 662 796 82 3 794 14 61 1 81 1
 675 1546 33 670 0 0 522 511 800 82 3 796 14 60 1 81 1 522 1545 33 525 0 0 690 6
75 798 82 3 800 14 59 1 81 1 690 1544 33 684 0 0 539 522 797 82 3 798 14 58 1 81
 1 539 1543 33 538 0 0 677 690 799 82 3 797 14 57 1 81 1 677 1542 33 676 0 0 535
 539 804 82 3 799 14 56 1 81 1 535 1541 33 526 0 0 663 677 805 82 3 804 14 55 1
 81 1 663 1540 33 664 0 0 516 535 802 82 3 805 14 54 1 81 1 516 1539 33 512 0 0
 651 663 803 82 3 802 14 53 1 81 1 651 1538 33 633 0 0 500 516 801 82 3 803 14 5
2 1 81 1 500 1537 33 494 0 0 660 651 808 82 3 801 14 51 1 81 1 660 1536 33 635 0
 0 505 500 810 82 3 808 14 50 1 81 1 505 1535 33 504 0 0 652 660 806 82 3 810 14
 49 1 81 1 652 1534 33 624 0 0 489 505 809 82 3 806 14 48 1 81 1 489 1533 33 479
 0 0 484 652 807 82 3 809 14 47 1 81 1 484 1532 33 620 0 0 485 489 811 82 3 807
 14 46 1 16 620 11 484 ?205 467 613 815 0 0 1 82 3 811 14 45 1 17 205 0 203 81 2
00 228 469 620 0 813 +31 815 13 0 620 0 626 0 +.0230360713041557 -.016 .03799972
629092005 0 -1 0 0 0 -1 .000524177472575199 30 626 18 0 467 815 654 0 +.02985037
84476333 -.016 .03852390376349525 1 0 0 17 469 0 646 206 813 189 205 620 0 0 -17
 813 0 646 469 812 228 638 640 0 0 -15 646 6 0 469 347 814 17 812 0 646 813 816
 223 657 635 0 638 -17 638 0 820 80 235 223 813 640 0 0 +15 820 997 0 480 818 0
 17 80 0 820 480 638 72 229 439 0 817 +17 235 0 820 638 480 228 81 440 0 205 -17
 480 0 820 235 80 77 471 510 0 0 -17 471 0 474 507 475 72 480 510 0 0 +17 507 0
 474 502 471 68 817 504 0 0 +17 502 0 474 499 507 67 819 496 0 0 +17 817 0 821 2
29 73 72 507 504 0 471 -15 821 999 0 817 825 0 17 229 0 821 657 817 223 80 439 0
 812 -17 73 0 821 817 657 68 221 444 0 819 +17 657 0 821 73 229 222 812 635 0 0
 +17 221 0 822 631 819 222 73 444 0 816 -17 819 0 822 221 66 68 502 496 0 507 -1
5 822 1001 0 819 823 0 17 66 0 822 819 631 67 219 446 0 824 +17 631 0 822 66 221
 220 816 628 0 0 +17 219 0 827 655 824 220 66 446 0 650 -17 824 0 827 219 65 67
 499 494 0 502 -15 827 1003 0 824 830 0 17 65 0 827 824 655 62 649 448 0 493 +17
 499 0 474 476 502 62 824 494 0 0 +17 476 0 474 468 499 59 493 491 0 457 -17 493
 0 829 649 61 62 476 491 0 499 +17 457 0 458 215 60 59 468 479 0 0 -15 458 1007
 0 457 826 0 17 215 0 458 459 457 210 61 455 0 647 -17 459 0 458 60 215 197 648
 624 0 0 +17 61 0 829 493 647 59 215 455 0 476 +17 647 0 829 61 649 210 216 641
 0 648 -15 829 1005 0 493 828 0 17 649 0 829 647 493 213 65 448 0 655 -17 648 0
 646 216 206 210 459 624 0 0 -17 206 0 646 648 469 197 204 467 0 461 +17 461 0 4
63 204 465 197 60 451 0 459 -17 655 0 827 65 219 213 650 633 0 0 +17 650 0 646 8
16 216 220 655 633 0 631 -17 816 0 646 812 650 222 631 628 0 657 -14 255 828 100
6 831 ?830 826 829 6 832 -0 0 830 826 25 81 1 831 1663 834 828 833 0 835 837 840
 14 830 1004 837 ?823 828 827 6 839 +0 0 823 828 25 14 826 1008 835 ?828 466 458
 6 836 +0 0 828 466 25 50 255 832 1045 0 828 839 836 0 +.0371888630636861 -.016
 .03118541914744245 1 0 0 0 0 -1 13 25 373 0 0 0 0 0 0 10 17 14 17 948 838 ?353
 0 193 6 845 +0 0 353 0 25 81 1 838 1636 834 17 841 0 0 843 842 14 353 946 843 ?
339 17 351 6 844 -0 0 339 17 25 50 845 1016 0 17 844 846 0 +-.01 -.016 .0212 -1
 0 -222400445638052e-30 -222400445638052e-30 0 1 50 844 1015 0 353 850 845 0 +.0
297 -.016 -.01 0 0 1 1 0 0 50 846 1017 0 847 845 848 0 +.04248305553669565 -.016
 .01121425744232732 1 0 0 0 0 -1 14 847 950 849 ?851 825 855 6 846 +0 0 851 825
 25 51 848 1018 0 853 846 852 0 -.04300723300927085 -.016 .00439995029884973 0 1
 0 .000524177472575199 0 0 1 14 853 952 854 ?859 860 857 6 848 +0 0 859 860 25 5
0 852 1019 0 860 848 858 0 +.0498215401527484 -.016 .00387577282627453 0 0 1 1 0
 0 14 860 954 856 ?853 863 865 6 852 +0 0 853 863 25 51 858 1020 0 863 852 861 0
 -.056635847296226 -.016 .004399950298849735 0 1 0 .000524177472575202 0 0 1 14
 863 956 864 ?860 862 866 6 858 +0 0 860 862 25 50 861 1021 0 862 858 870 0 +.05
71600247688012 -.016 .01121425744232732 1 0 0 0 0 -1 14 862 958 868 ?863 867 869
 6 861 -0 0 863 867 25 51 870 1022 0 867 861 871 0 -.056635847296226 -.016 .0180
285645858049 0 1 0 .000524177472575202 0 0 1 14 867 960 875 ?862 873 872 6 870 +
0 0 862 873 25 50 871 1023 0 873 870 874 0 +.0498215401527484 -.016 .01855274205
838015 0 0 1 1 0 0 14 873 962 876 ?867 880 877 6 871 -0 0 867 880 25 51 874 1024
 0 880 871 878 0 -.04300723300927085 -.016 .01802856458580495 0 1 0 .00052417747
25752 0 0 1 14 880 964 879 ?873 339 882 6 874 +0 0 873 339 25 50 878 1025 0 851
 874 885 0 +.0225118938315805 -.016 .01121425744232732 1 0 0 0 0 -1 14 851 966 8
84 ?881 847 883 6 878 +0 0 881 847 25 51 885 1026 0 886 878 887 0 -.023036071304
1557 -.016 .00439995029884973 0 1 0 .000524177472575199 0 0 1 14 886 968 889 ?88
8 890 892 6 885 +0 0 888 890 25 50 887 1027 0 890 885 895 0 +.0298503784476333 -
.016 .00387577282627453 0 0 1 1 0 0 14 890 970 894 ?886 891 893 6 887 +0 0 886 8
91 25 51 895 1028 0 891 887 900 0 -.0366646855911109 -.016 .00439995029884973 0
 1 0 .000524177472575199 0 0 1 14 891 972 896 ?890 898 897 6 895 +0 0 890 898 25
 50 900 1029 0 898 895 899 0 +.0371888630636861 -.016 .01121425744232732 1 0 0 0
 0 -1 14 898 974 901 ?891 905 902 6 900 -0 0 891 905 25 51 899 1030 0 905 900 90
3 0 -.0366646855911109 -.016 .01802856458580495 0 1 0 .0005241774725752 0 0 1 14
 905 976 904 ?898 906 910 6 899 +0 0 898 906 25 50 903 1031 0 906 899 908 0 +.02
98503784476333 -.016 .01855274205838015 0 0 1 1 0 0 14 906 978 907 ?905 859 909
 6 903 -0 0 905 859 25 51 908 1032 0 859 903 914 0 -.0230360713041557 -.016 .018
02856458580495 0 1 0 .000524177472575201 0 0 1 14 859 980 915 ?906 853 912 6 908
 +0 0 906 853 25 50 914 1033 0 881 908 913 0 +.00254073212646539 -.016 .01121425
744232732 1 0 0 0 0 -1 14 881 982 911 ?818 851 918 6 914 +0 0 818 851 25 51 913
 1034 0 920 914 916 0 -.00306490959904059 -.016 .00439995029884973 0 1 0 .000524
177472575198 0 0 1 14 920 984 919 ?19 917 921 6 913 +0 0 19 917 25 50 916 1035 0
 917 913 925 0 +.00987921674251819 -.016 .00387577282627453 0 0 1 1 0 0 14 917 9
86 923 ?920 922 924 6 916 +0 0 920 922 25 51 925 1036 0 922 916 926 0 -.01669352
38859958 -.016 .00439995029884973 0 1 0 .000524177472575199 0 0 1 14 922 988 930
 ?917 928 927 6 925 +0 0 917 928 25 50 926 1037 0 928 925 929 0 +.01721770135857
1 -.016 .01121425744232732 1 0 0 0 0 -1 14 928 990 931 ?922 935 932 6 926 -0 0 9
22 935 25 51 929 1038 0 935 926 933 0 -.0166935238859958 -.016 .0180285645858049
5 0 1 0 .0005241774725752 0 0 1 14 935 992 934 ?928 937 940 6 929 +0 0 928 937 2
5 50 933 1039 0 937 929 939 0 +.00987921674251819 -.016 .01855274205838015 0 0 1
 1 0 0 14 937 994 936 ?935 888 938 6 933 -0 0 935 888 25 51 939 1040 0 888 933 9
41 0 -.00306490959904059 -.016 .01802856458580495 0 1 0 .000524177472575199 0 0
 1 14 888 996 942 ?937 886 944 6 939 +0 0 937 886 25 50 941 1041 0 818 939 943 0
 +.0225118938315805 -.016 .03118541914744245 1 0 0 0 0 -1 14 818 998 945 ?947 88
1 820 6 941 +0 0 947 881 25 51 943 1042 0 825 941 950 0 -.0230360713041557 -.016
 .02437111200396485 0 1 0 .0005241774725752 0 0 1 14 825 1000 949 ?847 823 821 6
 943 +0 0 847 823 25 50 950 1043 0 823 943 839 0 +.0298503784476333 -.016 .02384
693453138965 0 0 1 1 0 0 14 823 1002 946 ?825 830 822 6 950 +0 0 825 830 25 51 8
39 1044 0 830 950 832 0 -.0366646855911109 -.016 .02437111200396485 0 1 0 .00052
41774725752 0 0 1 81 1 946 1665 834 823 948 0 837 949 955 80 1 834 0 951 8001 0
 0 0 0 3 5 0 0 0 FFFFTFTFFFFFFFFFF2 81 1 948 1598 33 823 0 946 953 952 954 81 1
 837 1664 834 830 956 0 831 946 960 81 1 949 1666 834 825 957 0 946 849 958 83 2
55 3 955 .647058823529412 .647058823529412 .647058823529412 81 1 957 1603 33 825
 0 949 959 956 961 81 1 849 1667 834 847 965 0 949 884 963 83 3 958 .64705882352
9412 .647058823529412 .647058823529412 81 1 965 1623 33 847 0 849 962 964 969 81
 1 884 1668 834 851 970 0 849 911 967 83 3 963 .647058823529412 .647058823529412
 .647058823529412 81 1 970 1615 33 851 0 884 968 966 973 81 1 911 1669 834 881 9
75 0 884 945 971 83 3 967 .647058823529412 .647058823529412 .647058823529412 81
 1 975 1607 33 881 0 911 974 972 976 81 1 945 1670 834 818 952 0 911 980 978 83
 3 971 .647058823529412 .647058823529412 .647058823529412 81 1 952 1599 33 818 0
 945 948 833 977 81 1 980 1671 834 947 979 0 945 981 985 83 3 978 .6470588235294
12 .647058823529412 .647058823529412 14 947 942 980 ?347 818 36 6 983 +0 0 347 8
18 25 81 1 979 1630 33 947 0 980 982 841 984 81 1 981 1672 834 347 953 0 980 986
 990 83 3 985 .647058823529412 .647058823529412 .647058823529412 14 347 1 981 ?4
72 947 646 6 987 +0 0 472 947 25 81 1 953 1597 33 347 0 981 988 948 989 81 1 986
 1673 834 472 988 0 981 0 992 83 3 990 .647058823529412 .647058823529412 .647058
823529412 14 472 500 986 ?0 347 474 6 995 -0 0 0 347 25 81 1 988 1596 33 472 0 9
86 994 953 991 83 3 992 .647058823529412 .647058823529412 .647058823529412 81 1
 994 1595 33 466 0 993 344 988 996 82 3 991 14 1 2 14 466 1010 993 ?826 19 463 6
 20 -0 0 826 19 25 81 1 993 1661 834 466 994 0 997 835 999 81 1 344 1594 33 336
 0 0 614 994 998 82 3 996 14 0 2 81 1 614 1593 33 611 0 0 748 344 1000 82 3 998
 14 107 1 82 3 1000 14 106 1 81 1 997 1660 834 19 1002 0 919 993 1005 81 1 835 1
662 834 826 959 0 993 831 1004 83 3 999 .647058823529412 .647058823529412 .64705
8823529412 81 1 959 1602 33 826 0 835 1002 957 1001 83 3 1004 .647058823529412 .
647058823529412 .647058823529412 81 1 1002 1601 33 19 0 997 833 959 1003 82 3 10
01 14 7 2 14 19 1012 997 ?466 920 203 6 7 +0 0 466 920 25 81 1 833 1600 33 828 0
 831 952 1002 1010 82 3 1003 14 6 2 82 3 1010 14 5 2 81 1 919 1659 834 920 1006
 0 923 997 1008 83 3 1005 .647058823529412 .647058823529412 .647058823529412 81
 1 1006 1611 33 920 0 919 1007 1009 1011 81 1 923 1658 834 917 974 0 930 919 101
5 83 3 1008 .647058823529412 .647058823529412 .647058823529412 81 1 974 1606 33
 917 0 923 1012 975 1013 81 1 930 1657 834 922 1009 0 931 923 1014 83 3 1015 .64
7058823529412 .647058823529412 .647058823529412 81 1 1009 1612 33 922 0 930 1006
 1016 1020 81 1 931 1656 834 928 972 0 934 930 1018 83 3 1014 .647058823529412 .
647058823529412 .647058823529412 81 1 972 1608 33 928 0 931 975 1017 1019 81 1 9
34 1655 834 935 1007 0 936 931 1024 83 3 1018 .647058823529412 .647058823529412
 .647058823529412 81 1 1007 1610 33 935 0 934 1017 1006 1025 81 1 936 1654 834 9
37 1012 0 942 934 1022 83 3 1024 .647058823529412 .647058823529412 .647058823529
412 81 1 1012 1605 33 937 0 936 956 974 1023 81 1 942 1653 834 888 1017 0 889 93
6 1021 83 3 1022 .647058823529412 .647058823529412 .647058823529412 81 1 1017 16
09 33 888 0 942 972 1007 1028 81 1 889 1652 834 886 1030 0 894 942 1026 83 3 102
1 .647058823529412 .647058823529412 .647058823529412 81 1 1030 1619 33 886 0 889
 1029 1027 1031 81 1 894 1651 834 890 968 0 896 889 1035 83 3 1026 .647058823529
412 .647058823529412 .647058823529412 81 1 968 1614 33 890 0 894 1016 970 1033 8
1 1 896 1650 834 891 1027 0 901 894 1032 83 3 1035 .647058823529412 .64705882352
9412 .647058823529412 81 1 1027 1620 33 891 0 896 1030 1034 1036 81 1 901 1649 8
34 898 966 0 904 896 1040 83 3 1032 .647058823529412 .647058823529412 .647058823
529412 81 1 966 1616 33 898 0 901 970 1038 1037 81 1 904 1648 834 905 1029 0 907
 901 1039 83 3 1040 .647058823529412 .647058823529412 .647058823529412 81 1 1029
 1618 33 905 0 904 1038 1030 1041 81 1 907 1647 834 906 1016 0 915 904 1045 83 3
 1039 .647058823529412 .647058823529412 .647058823529412 81 1 1016 1613 33 906 0
 907 1009 968 1042 81 1 915 1646 834 859 1038 0 854 907 1043 83 3 1045 .64705882
3529412 .647058823529412 .647058823529412 81 1 1038 1617 33 859 0 915 966 1029 1
044 81 1 854 1645 834 853 1047 0 856 915 1050 83 3 1043 .647058823529412 .647058
823529412 .647058823529412 81 1 1047 1627 33 853 0 854 1049 1046 1048 81 1 856 1
644 834 860 962 0 864 854 1051 83 3 1050 .647058823529412 .647058823529412 .6470
58823529412 81 1 962 1622 33 860 0 856 1034 965 1052 81 1 864 1643 834 863 1046
 0 868 856 1054 83 3 1051 .647058823529412 .647058823529412 .647058823529412 81
 1 1046 1628 33 863 0 864 1047 982 1053 81 1 868 1642 834 862 964 0 875 864 1055
 83 3 1054 .647058823529412 .647058823529412 .647058823529412 81 1 964 1624 33 8
62 0 868 965 1057 1060 81 1 875 1641 834 867 1049 0 876 868 1059 83 3 1055 .6470
58823529412 .647058823529412 .647058823529412 81 1 1049 1626 33 867 0 875 1057 1
047 1056 81 1 876 1640 834 873 1034 0 879 875 1058 83 3 1059 .647058823529412 .6
47058823529412 .647058823529412 81 1 1034 1621 33 873 0 876 1027 962 1065 81 1 8
79 1639 834 880 1057 0 1061 876 1063 83 3 1058 .647058823529412 .647058823529412
 .647058823529412 81 1 1057 1625 33 880 0 879 964 1049 1062 81 1 1061 1638 834 3
39 1064 0 843 879 1066 83 3 1063 .647058823529412 .647058823529412 .647058823529
412 14 339 944 1061 ?880 353 331 6 850 -0 0 880 353 25 81 1 1064 1632 33 339 0 1
061 841 0 1070 81 1 843 1637 834 353 982 0 838 1061 1067 83 3 1066 .647058823529
412 .647058823529412 .647058823529412 81 1 982 1629 33 353 0 843 1046 979 1068 8
3 3 1067 .647058823529412 .647058823529412 .647058823529412 82 3 1068 14 34 2 81
 1 841 1631 33 17 0 838 979 1064 1069 82 3 1070 14 37 2 82 3 1069 14 36 2 50 850
 1014 0 339 983 844 0 +.0694 -.016 .0212 -1 0 0 0 0 1 50 983 1013 0 947 995 850
 0 +.0297 -.016 .0524 0 0 1 1 0 0 50 995 832 0 472 987 983 0 +.0297 -.013 .0212
 0 -1 0 1 0 0 50 987 3 0 347 0 995 0 +.0297 -.016 .0212 0 -1 0 1 0 0 82 3 1062 1
4 30 2 82 3 1065 14 26 2 82 3 1056 14 31 2 82 3 1060 14 29 2 82 3 1053 14 33 2 8
2 3 1052 14 27 2 82 3 1048 14 32 2 82 3 1044 14 22 2 82 3 1042 14 18 2 82 3 1041
 14 23 2 82 3 1037 14 21 2 82 3 1036 14 25 2 82 3 1033 14 19 2 82 3 1031 14 24 2
 82 3 1028 14 14 2 81 1 956 1604 33 830 0 837 957 1012 1071 82 3 1023 14 10 2 82
 3 1071 14 9 2 82 3 1025 14 15 2 82 3 1019 14 13 2 82 3 1020 14 17 2 82 3 1013 1
4 11 2 82 3 1011 14 16 2 50 20 1047 0 466 836 7 0 +.0298503784476333 -.016 .0385
2390376349525 0 0 1 1 0 0 51 836 1046 0 826 832 20 0 -.0366646855911109 -.016 .0
3799972629092005 0 1 0 .000524177472575199 0 0 1 82 3 989 14 2 2 82 3 984 14 35
 2 15 36 941 0 37 947 0 17 37 0 36 34 184 23 617 613 0 0 -17 617 0 1075 183 194
 182 37 613 0 0 +15 1075 543 0 194 472 0 17 183 0 1075 354 617 185 188 611 0 333
 -17 194 0 1075 617 354 23 192 607 0 37 +17 354 0 1075 194 183 179 340 356 0 192
 -17 192 0 193 332 41 179 194 607 0 0 -17 188 0 331 190 333 182 183 611 0 617 +8
2 3 977 14 4 2 82 3 976 14 12 2 82 3 973 14 20 2 82 3 969 14 28 2 82 3 961 14 8
 2 83 3 960 .647058823529412 .647058823529412 .647058823529412 82 3 954 14 3 2 7
9 255 15 951 SDL/TYSA_COLOUR15 944 995 0 1073 888 0 17 1073 0 944 240 114 85 513
 508 0 0 -17 240 0 944 665 1073 234 84 393 0 1072 -17 114 0 944 1073 665 109 262
 412 0 513 +17 513 0 473 541 1074 109 1073 508 0 1079 +15 473 540 0 513 472 1080
 17 541 0 473 540 513 106 1079 538 0 0 +17 1074 0 473 513 521 85 520 512 0 1073
 -17 1079 0 918 262 108 109 541 538 0 0 -15 918 981 0 1079 881 0 17 262 0 918 68
8 1079 261 114 412 0 665 -17 108 0 918 1079 688 106 257 420 0 1077 +17 688 0 918
 108 262 260 1078 684 0 0 +17 257 0 921 683 1077 260 108 420 0 1076 -17 1077 0 9
21 257 104 106 540 534 0 541 -15 921 983 0 1077 920 0 17 104 0 921 1077 683 105
 258 416 0 1083 +17 540 0 473 531 541 105 1077 534 0 0 +17 531 0 473 528 540 98
 1083 526 0 0 +17 528 0 473 1085 531 94 1081 529 0 0 +17 1083 0 924 258 101 105
 531 526 0 540 -15 924 985 0 1083 917 0 17 258 0 924 679 1083 252 104 416 0 1084
 -17 101 0 924 1083 679 98 255 421 0 1081 +17 679 0 924 101 258 247 1084 676 0 0
 +17 255 0 927 680 1081 247 101 421 0 1082 -17 1081 0 927 255 100 98 528 529 0 5
31 -15 927 987 0 1081 922 0 17 100 0 927 1081 680 94 1086 426 0 524 +17 680 0 92
7 100 255 244 1082 674 0 0 +17 1086 0 932 1090 524 244 100 426 0 680 -17 524 0 9
32 1086 91 94 1085 525 0 528 +15 932 989 0 524 928 0 17 91 0 932 524 1090 86 243
 427 0 1085 +17 1085 0 473 521 528 86 524 525 0 1088 -17 521 0 473 1074 1085 89
 1088 517 0 0 +17 1088 0 940 243 88 86 521 517 0 0 -15 940 991 0 1088 935 0 17 2
43 0 940 668 1088 241 91 427 0 1090 -17 88 0 940 1088 668 89 1087 435 0 520 +17
 668 0 940 88 243 236 1089 666 0 0 +17 1087 0 938 1072 520 236 88 435 0 668 -17
 520 0 938 1087 84 89 1074 512 0 521 +15 938 993 0 520 937 0 17 84 0 938 520 107
2 85 240 393 0 1074 +17 1072 0 938 84 1087 234 239 664 0 1091 -17 239 0 814 1089
 1091 236 1072 664 0 1087 +17 1091 0 814 239 1078 234 665 636 0 0 -15 814 7 0 10
91 347 1095 17 1078 0 814 1091 1076 261 688 684 0 0 -17 665 0 944 114 240 261 10
91 636 0 1078 +17 1076 0 814 1078 1084 260 683 681 0 688 -17 1084 0 814 1076 108
2 252 679 676 0 683 -17 683 0 921 104 257 252 1076 681 0 0 +17 1082 0 814 1084 2
48 247 680 674 0 679 -17 248 0 814 1082 1089 244 1090 670 0 1086 +17 1089 0 814
 248 239 241 668 666 0 0 -17 1090 0 932 91 1086 241 248 670 0 1089 -15 1095 8 0
 1093 347 1092 17 1093 0 1095 275 1094 264 695 687 0 0 -15 1092 9 0 1096 347 342
 17 1096 0 1092 302 1100 300 722 716 0 0 -17 302 0 1092 1097 1096 301 1098 724 0
 1099 +17 1100 0 1092 1096 1102 324 747 744 0 0 -17 722 0 882 180 299 324 1096 7
16 0 1100 +15 882 963 0 1105 880 0 17 180 0 882 1105 722 173 327 361 0 580 +17 2
99 0 882 722 1105 300 149 390 0 1098 -17 1105 0 882 299 180 148 580 573 0 0 -17
 149 0 877 584 1098 148 299 390 0 1104 +17 1098 0 877 149 1099 300 302 724 0 109
6 -15 877 961 0 584 873 0 17 1099 0 877 1098 584 301 153 383 0 726 -17 584 0 877
 1099 149 147 1104 578 0 581 +17 153 0 872 1101 726 147 1099 383 0 584 +17 726 0
 872 153 307 301 1097 727 0 0 +15 872 959 0 1101 867 0 17 307 0 872 726 1101 304
 160 381 0 1103 -17 1097 0 1092 315 302 304 726 727 0 0 -17 315 0 1092 1106 1097
 308 1103 728 0 1107 +17 1106 0 1092 1109 315 311 736 733 0 739 -17 1103 0 869 1
60 1107 304 315 728 0 1097 -17 1107 0 869 1103 589 308 161 378 0 736 -15 869 957
 0 589 862 0 17 589 0 869 1107 160 158 1108 588 0 593 +17 161 0 866 1110 736 158
 1107 378 0 589 +17 736 0 866 161 316 308 1106 733 0 0 +15 866 955 0 1110 863 0
 17 316 0 866 736 1110 311 164 374 0 1106 -17 1110 0 866 316 161 165 593 587 0 6
00 -17 164 0 865 1112 739 165 316 374 0 1110 +15 865 953 0 1112 860 0 17 1112 0
 865 319 164 167 600 592 0 601 -17 739 0 865 164 319 311 1109 740 0 0 +17 319 0
 865 739 1112 320 166 375 0 1109 -17 1109 0 1092 1102 1106 320 739 740 0 742 -17
 1102 0 1092 1100 1109 321 742 741 0 747 -17 742 0 857 166 322 320 1102 741 0 0
 +15 857 951 0 1115 853 0 17 166 0 857 1115 742 167 319 375 0 1112 +17 322 0 857
 742 1115 321 174 366 0 1102 -17 1115 0 857 322 166 168 601 598 0 604 -17 174 0
 855 1114 747 168 322 366 0 1115 +15 855 949 0 1114 847 0 17 1114 0 855 327 174
 173 604 605 0 0 -17 747 0 855 174 327 321 1100 744 0 0 +17 327 0 855 747 1114 3
24 180 361 0 722 -17 604 0 1111 601 580 168 1114 605 0 0 +15 1111 542 0 580 472
 1075 17 601 0 1111 600 604 167 1115 598 0 0 +17 580 0 1111 604 1104 173 1105 57
3 0 1114 +17 1104 0 1111 580 581 148 584 578 0 1105 -17 581 0 1111 1104 1108 147
 1101 585 0 0 +17 1108 0 1111 581 593 152 589 588 0 1101 -17 1101 0 872 307 153
 152 581 585 0 0 -17 593 0 1111 1108 600 158 1110 587 0 0 +17 600 0 1111 593 601
 165 1112 592 0 0 +17 160 0 869 589 1103 152 307 381 0 1108 +17 275 0 1095 1113
 1093 267 1120 692 0 1116 +17 1094 0 1095 1093 1118 293 719 714 0 0 -17 695 0 91
2 141 268 293 1093 687 0 1094 +15 912 979 0 1117 859 0 17 141 0 912 1117 695 145
 296 388 0 544 +17 268 0 912 695 1117 264 117 369 0 1120 -17 1117 0 912 268 141
 111 544 545 0 0 -17 117 0 909 548 1120 111 268 369 0 1119 +17 1120 0 909 117 11
16 264 275 692 0 1093 -15 909 977 0 548 906 0 17 1116 0 909 1120 548 267 122 408
 0 699 -17 548 0 909 1116 117 119 1119 546 0 554 +17 122 0 910 1121 699 119 1116
 408 0 548 +17 699 0 910 122 277 267 1113 698 0 0 +15 910 975 0 1121 905 0 17 27
7 0 910 699 1121 272 123 406 0 1125 -17 1113 0 1095 278 275 272 699 698 0 0 -17
 278 0 1095 1122 1113 280 1125 697 0 1123 +17 1122 0 1095 1124 278 281 706 703 0
 709 -17 1125 0 902 123 1123 272 278 697 0 1113 -17 1123 0 902 1125 557 280 127
 403 0 706 -15 902 973 0 557 898 0 17 557 0 902 1123 123 130 1126 551 0 562 +17
 127 0 897 1130 706 130 1123 403 0 557 +17 706 0 897 127 283 280 1122 703 0 0 +1
5 897 971 0 1130 891 0 17 283 0 897 706 1130 281 132 398 0 1122 -17 1130 0 897 2
83 127 129 562 559 0 563 -17 132 0 893 1128 709 129 283 398 0 1130 +15 893 969 0
 1128 890 0 17 1128 0 893 289 132 133 563 565 0 567 -17 709 0 893 132 289 281 11
24 710 0 0 +17 289 0 893 709 1128 285 140 400 0 1124 -17 1124 0 1095 1118 1122 2
85 709 710 0 713 -17 1118 0 1095 1094 1124 286 713 711 0 719 -17 713 0 892 140 2
91 285 1118 711 0 0 +15 892 967 0 1127 886 0 17 140 0 892 1127 713 133 289 400 0
 1128 +17 291 0 892 713 1127 286 144 394 0 1118 -17 1127 0 892 291 140 138 567 5
70 0 572 -17 144 0 883 1129 719 138 291 394 0 1127 +15 883 965 0 1129 851 0 17 1
129 0 883 296 144 145 572 569 0 0 -17 719 0 883 144 296 286 1094 714 0 0 +17 296
 0 883 719 1129 293 141 388 0 695 -17 572 0 1080 567 544 138 1129 569 0 0 +15 10
80 541 0 544 472 1111 17 567 0 1080 563 572 133 1127 570 0 0 +17 544 0 1080 572
 1119 145 1117 545 0 1129 +17 1119 0 1080 544 554 111 548 546 0 1117 -17 554 0 1
080 1119 1126 119 1121 549 0 0 +17 1126 0 1080 554 562 125 557 551 0 1121 -17 11
21 0 910 277 122 125 554 549 0 0 -17 562 0 1080 1126 563 130 1130 559 0 0 +17 56
3 0 1080 562 567 129 1128 565 0 0 +17 123 0 902 557 1125 125 277 406 0 1126 +83
 3 842 .647058823529412 .647058823529412 .647058823529412 83 3 840 .647058823529
412 .647058823529412 .647058823529412 17 30 0 351 340 348 179 332 11 0 354 +82 3
 746 14 105 1 79 9 618 BTI/DetId82 3 486 14 44 1 81 1 42 1486 33 35 0 0 38 460 1
134 82 3 462 14 0 1 82 3 1134 14 71 0 81 1 443 1489 33 444 0 0 453 449 1135 82 3
 456 14 1 1 81 1 449 1490 33 446 0 0 443 438 1132 82 3 1135 14 2 1 81 1 438 1491
 33 440 0 0 449 445 1133 82 3 1132 14 3 1 81 1 445 1492 33 439 0 0 438 454 1131
 82 3 1133 14 4 1 81 1 454 1493 33 455 0 0 445 452 1138 82 3 1131 14 5 1 81 1 45
2 1494 33 448 0 0 454 436 1140 82 3 1138 14 6 1 81 1 436 1495 33 393 0 0 452 432
 1136 82 3 1140 14 7 1 81 1 432 1496 33 435 0 0 436 425 1139 82 3 1136 14 8 1 81
 1 425 1497 33 416 0 0 432 422 1137 82 3 1139 14 9 1 81 1 422 1498 33 421 0 0 42
5 419 1141 82 3 1137 14 10 1 81 1 419 1499 33 412 0 0 422 418 1145 82 3 1141 14
 11 1 81 1 418 1500 33 420 0 0 419 431 1143 82 3 1145 14 12 1 81 1 431 1501 33 4
27 0 0 418 428 1142 82 3 1143 14 13 1 81 1 428 1502 33 426 0 0 431 413 1144 82 3
 1142 14 14 1 81 1 413 1503 33 369 0 0 428 411 1146 82 3 1144 14 15 1 81 1 411 1
504 33 408 0 0 413 396 1150 82 3 1146 14 16 1 81 1 396 1505 33 400 0 0 411 401 1
148 82 3 1150 14 17 1 81 1 401 1506 33 398 0 0 396 392 1147 82 3 1148 14 18 1 81
 1 392 1507 33 388 0 0 401 397 1149 82 3 1147 14 19 1 81 1 397 1508 33 394 0 0 3
92 407 1151 82 3 1149 14 20 1 81 1 407 1509 33 406 0 0 397 404 1155 82 3 1151 14
 21 1 81 1 404 1510 33 403 0 0 407 386 1152 82 3 1155 14 22 1 81 1 386 1511 33 3
90 0 0 404 387 1153 82 3 1152 14 23 1 81 1 387 1512 33 383 0 0 386 372 1154 82 3
 1153 14 24 1 81 1 372 1513 33 375 0 0 387 380 1157 82 3 1154 14 25 1 81 1 380 1
514 33 374 0 0 372 370 1160 82 3 1157 14 26 1 81 1 370 1515 33 361 0 0 380 371 1
159 82 3 1160 14 27 1 81 1 371 1516 33 366 0 0 370 382 1156 82 3 1159 14 28 1 81
 1 382 1517 33 381 0 0 371 379 1158 82 3 1156 14 29 1 81 1 379 1518 33 378 0 0 3
82 27 1161 82 3 1158 14 30 1 81 1 27 1519 33 11 0 0 379 360 1162 82 3 1161 14 31
 1 82 3 1162 14 32 1 82 3 359 14 33 1 81 1 181 1481 33 185 0 0 329 191 1164 82 3
 334 14 67 0 81 1 329 1480 33 328 0 0 178 181 1163 82 3 1164 14 66 0 81 1 178 14
79 33 179 0 0 313 329 1165 82 3 1163 14 65 0 81 1 313 1478 33 308 0 0 159 178 11
67 82 3 1165 14 64 0 81 1 159 1477 33 158 0 0 310 313 1170 82 3 1167 14 63 0 81
 1 310 1476 33 304 0 0 156 159 1169 82 3 1170 14 62 0 81 1 156 1475 33 152 0 0 3
23 310 1166 82 3 1169 14 61 0 81 1 323 1474 33 321 0 0 172 156 1168 82 3 1166 14
 60 0 81 1 172 1473 33 168 0 0 330 323 1175 82 3 1168 14 59 0 81 1 330 1472 33 3
24 0 0 177 172 1171 82 3 1175 14 58 0 81 1 177 1471 33 173 0 0 312 330 1173 82 3
 1171 14 57 0 81 1 312 1470 33 311 0 0 163 177 1172 82 3 1173 14 56 0 81 1 163 1
469 33 165 0 0 317 312 1174 82 3 1172 14 55 0 81 1 317 1468 33 320 0 0 169 163 1
176 82 3 1174 14 54 0 81 1 169 1467 33 167 0 0 303 317 1180 82 3 1176 14 53 0 81
 1 303 1466 33 301 0 0 155 169 1177 82 3 1180 14 52 0 81 1 155 1465 33 147 0 0 2
98 303 1178 82 3 1177 14 51 0 81 1 298 1464 33 300 0 0 146 155 1179 82 3 1178 14
 50 0 81 1 146 1463 33 148 0 0 276 298 1181 82 3 1179 14 49 0 81 1 276 1462 33 2
80 0 0 128 146 1185 82 3 1181 14 48 0 81 1 128 1461 33 130 0 0 274 276 1183 82 3
 1185 14 47 0 81 1 274 1460 33 272 0 0 121 128 1182 82 3 1183 14 46 0 81 1 121 1
459 33 125 0 0 295 274 1184 82 3 1182 14 45 0 81 1 295 1458 33 286 0 0 139 121 1
189 82 3 1184 14 44 0 81 1 139 1457 33 138 0 0 294 295 1190 82 3 1189 14 43 0 81
 1 294 1456 33 293 0 0 143 139 1187 82 3 1190 14 42 0 81 1 143 1455 33 145 0 0 2
84 294 1188 82 3 1187 14 41 0 81 1 284 1454 33 281 0 0 135 143 1186 82 3 1188 14
 40 0 81 1 135 1453 33 129 0 0 290 284 1193 82 3 1186 14 39 0 81 1 290 1452 33 2
85 0 0 136 135 1195 82 3 1193 14 38 0 81 1 136 1451 33 133 0 0 271 290 1191 82 3
 1195 14 37 0 81 1 271 1450 33 267 0 0 120 136 1194 82 3 1191 14 36 0 81 1 120 1
449 33 119 0 0 270 271 1192 82 3 1194 14 35 0 81 1 270 1448 33 264 0 0 116 120 1
196 82 3 1192 14 34 0 81 1 116 1447 33 111 0 0 250 270 1200 82 3 1196 14 33 0 81
 1 250 1446 33 244 0 0 96 116 1198 82 3 1200 14 32 0 81 1 96 1445 33 94 0 0 242
 250 1197 82 3 1198 14 31 0 81 1 242 1444 33 241 0 0 95 96 1199 82 3 1197 14 30
 0 81 1 95 1443 33 86 0 0 259 242 1201 82 3 1199 14 29 0 81 1 259 1442 33 260 0
 0 107 95 1205 82 3 1201 14 28 0 81 1 107 1441 33 106 0 0 263 259 1203 82 3 1205
 14 27 0 81 1 263 1440 33 261 0 0 115 107 1202 82 3 1203 14 26 0 81 1 115 1439 3
3 109 0 0 254 263 1204 82 3 1202 14 25 0 81 1 254 1438 33 247 0 0 99 115 1206 82
 3 1204 14 24 0 81 1 99 1437 33 98 0 0 251 254 1210 82 3 1206 14 23 0 81 1 251 1
436 33 252 0 0 102 99 1207 82 3 1210 14 22 0 81 1 102 1435 33 105 0 0 237 251 12
08 82 3 1207 14 21 0 81 1 237 1434 33 236 0 0 87 102 1209 82 3 1208 14 20 0 81 1
 87 1433 33 89 0 0 233 237 1212 82 3 1209 14 19 0 81 1 233 1432 33 234 0 0 82 87
 1215 82 3 1212 14 18 0 81 1 82 1431 33 85 0 0 214 233 1214 82 3 1215 14 17 0 81
 1 214 1430 33 213 0 0 63 82 1211 82 3 1214 14 16 0 81 1 63 1429 33 62 0 0 211 2
14 1213 82 3 1211 14 15 0 81 1 211 1428 33 210 0 0 58 63 1216 82 3 1213 14 14 0
 81 1 58 1427 33 59 0 0 227 211 1217 82 3 1216 14 13 0 81 1 227 1426 33 223 0 0
 76 58 1219 82 3 1217 14 12 0 81 1 76 1425 33 72 0 0 232 227 1218 82 3 1219 14 1
1 0 81 1 232 1424 33 228 0 0 79 76 1220 82 3 1218 14 10 0 81 1 79 1423 33 77 0 0
 218 232 1222 82 3 1220 14 9 0 81 1 218 1422 33 220 0 0 69 79 1225 82 3 1222 14
 8 0 81 1 69 1421 33 67 0 0 224 218 1224 82 3 1225 14 7 0 81 1 224 1420 33 222 0
 0 71 69 1221 82 3 1224 14 6 0 81 1 71 1419 33 68 0 0 202 224 1223 82 3 1221 14
 5 0 81 1 202 1418 33 197 0 0 57 71 1230 82 3 1223 14 4 0 81 1 57 1417 33 53 0 0
 199 202 1226 82 3 1230 14 3 0 82 3 1226 14 2 0 81 1 55 1415 33 49 0 0 1228 199
 1227 82 3 196 14 1 0 81 1 1228 1414 33 1 0 1229 0 55 1231 82 3 1227 14 0 0 81 1
 1229 1633 1235 1 1228 14 0 0 1232 82 3 1231 11 0 3 80 1 1235 1233 1234 8038 0 0
 0 0 0 0 0 0 0 TTTTTTTTTTTTTFTFT10 81 1 14 1634 1233 1 1229 2 0 0 1236 98 255 6
 1232 80 97 114 116 32 50 80 1 1233 1240 1238 8017 0 0 0 0 0 0 0 0 0 TTTTTTTTTTT
TTFTFT3 84 255 6 1236 Part 279 13 1238 SDL/TYSA_NAME79 14 1234 SDL/TYSA_UNAME82
 3 195 14 68 0 82 3 186 14 70 0 82 3 40 14 69 0 19 18 1086 0 1 0 10 6 0 S0 74 4
 CI16 index_map_offset0 0 1 dCCZ20 16 5 0 0 1064 1229 14 2 986 0 0 0 0 0 0 0 0 0
 0 0 0 0 0 0 80 1 13 834 1237 8040 0 0 0 0 3 5 0 0 0 TTTFFFFFFFFFFFFFF2 83 3 15
 .647058823529412 .647058823529412 .647058823529412 79 17 1237 SDL/TYSA_COLOUR_2
1 0 
