**ABCDEFGHIJKLMNOPQRSTUVWXYZabcdefghijklmnopqrstuvwxyz**************************
**PARASOLID !"#$%&'()*+,-./:;<=>?@[\]^_`{|}~0123456789**************************
**PART1;
MC=unknown;
MC_MODEL=unknown;
MC_ID=unknown;
OS=unknown;
OS_RELEASE=unknown;
FRU=Parasolid 37.1.212;
APPL=Onshape;
SITE=unknown;
USER=unknown;
FORMAT=text;
GUISE=transmit;
KEY=BTGapi::writeModels_.xmt;
FILE=BTGapi::writeModels_.xmt;
DATE=2026-03-22T15:41:59 (UTC);
**PART2;
SCH=SCH_3701212_37102;
USFLD_SIZE=0;
**PART3;
**END_OF_HEADER*****************************************************************
T51 : TRANSMIT FILE created by modeller version 370121223 SCH_3701212_37102_1300
6239 0 12 36 CCCI7 lattice222 0 CCCI4 mesh1006 0 I8 polyline1008 0 CCCCCCCDI5 ow
ner1040 0 CCCI16 boundary_lattice222 0 CCCI13 boundary_mesh1006 0 I17 boundary_p
olyline1008 0 CCCA16 index_map_offset0 0 1 dA9 index_map82 0 A17 node_id_index_m
ap82 0 A20 schema_embedding_map82 0 A5 child12 0 A14 lowest_node_id0 0 1 dA16 me
sh_offset_data206 0 Z1 997 2 3 0 0 0 0 0 0 0 1e3 1e-8 0 4 5 1 0 1 2 6 0 7 8 9 0
 0 10 11 12 0 0 0 0 0 0 0 81 255 1 2 979 13 1 14 0 0 0 15 70 11 CI9 list_type0 0
 1 uI10 notransmit0 0 1 lCCCDCCDI12 finger_index0 0 1 dI12 finger_block1012 0 CZ
3 0 4 T1 0 0 5 20 1 16 16 13 255 6 350 0 1 0 17 0 0 18 0 50 255 7 341 0 19 20 0
 0 +-.01 -.013 .0212 -1 0 -1946003899332955e-31 -1946003899332955e-31 0 1 30 255
 8 349 0 21 22 0 0 +-.01 -.013 -.01 0 1 0 29 255 9 736 0 12 23 0 -.01 -.0085 .02
72019595699929 19 9 CCCCCCI5 frame230 0 CA5 owner12 0 Z10 113 0 1 18 0 24 0 V0 1
6 255 11 293 25 ?27 0 30 29 0 0 1 18 255 12 734 26 28 0 34 9 ?1 81 1 26 954 35 1
2 0 0 32 33 31 17 255 28 0 38 40 36 12 39 37 0 41 +18 34 486 45 43 12 42 23 ?1 8
1 1 45 686 35 34 0 0 44 46 50 17 43 0 48 47 49 34 51 55 0 27 -18 42 476 52 53 34
 54 57 ?1 29 23 490 0 34 57 9 0 -.003 0 29 57 480 0 42 60 23 -693889390390723e-3
2 -.003 .0424 29 60 465 0 54 59 57 .0594 -.003 0 18 54 461 46 56 42 58 60 ?1 29
 59 286 0 61 62 60 -.01 0 .0524 18 61 253 64 63 65 66 59 ?1 29 62 287 0 66 70 59
 .0694 0 .0524 18 66 257 68 67 61 69 62 ?1 29 70 288 0 69 75 62 .0694 0 -.01 18
 69 261 71 73 66 72 70 ?1 29 75 289 0 72 74 70 -.01 0 -.01 18 72 265 76 80 69 77
 75 ?1 29 74 109 0 58 78 75 .0594 -.013 0 18 58 107 79 81 54 85 74 ?1 29 78 104
 0 85 83 74 .0594 -.013 .0424 18 85 102 82 84 58 89 78 ?1 29 83 99 0 89 90 78 -6
93889390390723e-32 -.013 .0424 18 89 97 87 88 85 86 83 ?1 29 90 94 0 86 93 83 0
 -.013 0 18 86 92 95 47 89 91 90 ?1 29 93 89 0 91 94 90 -.01 -.013 .0524 18 91 8
7 92 96 86 100 93 ?1 29 94 84 0 100 98 93 .0694 -.013 .0524 18 100 82 97 99 91 1
01 94 ?1 29 98 79 0 101 105 94 .0694 -.013 -.01 18 101 77 103 102 100 65 98 ?1 2
9 105 74 0 65 104 98 -.01 -.013 -.01 18 65 72 106 110 101 61 105 ?1 29 104 652 0
 77 107 105 .0594 -.003 .0424 18 77 601 108 109 72 112 104 ?1 29 107 934 0 112 1
15 104 0 -.0085 .0272019595699929 18 112 866 114 111 77 113 107 ?1 29 115 935 0
 113 116 107 -3469446951953615e-33 -.013 .0272019595699929 18 113 861 117 119 11
2 118 115 ?1 29 116 936 0 118 120 115 -3469446951953615e-33 -.013 .0152019595699
929 18 118 851 121 125 113 123 116 ?1 29 120 937 0 123 122 116 0 -.0085 .0152019
595699929 18 123 854 124 130 118 126 120 ?1 29 122 938 0 126 128 120 -.01 -.013
 .0152019595699929 18 126 859 33 127 123 129 122 ?1 29 128 939 0 129 131 122 -.0
1 -.0085 .0152019595699929 18 129 855 135 132 126 133 128 ?1 29 131 941 0 133 0
 128 -.01 -.013 .0272019595699929 18 133 862 32 36 129 0 131 ?1 81 1 32 953 35 1
33 0 0 124 26 134 17 36 0 38 28 119 133 136 140 0 39 +15 255 38 882 0 36 138 0 1
7 119 0 38 36 40 113 137 139 0 136 -17 136 0 144 88 145 113 36 140 0 142 -16 140
 779 143 ?36 141 148 150 0 0 1 17 39 0 146 96 149 133 28 37 0 145 -15 146 743 0
 39 19 0 17 96 0 146 63 39 91 145 147 0 151 +17 149 0 146 39 155 12 153 152 0 0
 -16 37 841 154 ?28 152 0 156 0 0 1 17 145 0 144 136 160 133 96 147 0 0 -15 144
 11 0 158 17 0 17 160 0 144 145 99 91 157 159 0 0 -16 147 714 161 ?96 165 162 16
3 165 165 1 81 1 161 976 35 147 0 0 164 0 167 16 165 12 164 ?170 169 147 163 147
 147 1 16 162 205 166 ?168 147 171 172 0 0 1 30 163 14 0 165 174 173 0 +-.01 -.0
13 .0212 -1946003899332955e-31 0 1 30 174 643 0 175 176 163 0 +.0297 -.003 .0424
 1 0 0 30 173 19 0 169 163 180 0 +.0297 -.013 -.01 1 0 0 16 169 17 178 ?102 177
 165 173 0 0 1 30 180 24 0 177 173 179 0 +.0694 -.013 .0212 0 0 1 16 177 22 185
 ?99 159 169 180 0 0 1 30 179 29 0 159 180 181 0 +.0297 -.013 .0524 1 0 0 16 159
 27 183 ?157 182 177 179 0 0 1 31 255 181 34 0 182 179 184 0 +.0644 -.013 .0474
 0 -1 0 0 0 -1 .00145 16 182 32 186 ?190 187 159 181 0 0 1 31 184 39 0 187 181 1
88 0 +.0644 -.013 -.005 0 -1 0 0 0 -1 .00145 16 187 37 189 ?191 195 182 184 0 0
 1 31 188 44 0 195 184 193 0 +-.005 -.013 -.005 0 -1 0 0 0 -1 .00145 16 195 42 1
92 ?194 199 187 188 0 0 1 31 193 49 0 199 188 200 0 +-.005 -.013 .0474 0 -1 0 0
 0 -1 .00145 16 199 47 197 ?198 196 195 193 0 0 1 30 200 54 0 196 193 203 0 +.02
97 -.013 0 1 0 0 16 196 52 205 ?201 204 199 200 0 0 1 30 203 59 0 202 200 206 0
 +0 -.013 .0212 0 0 1 16 202 57 210 ?158 208 204 203 204 204 1 30 206 64 0 208 2
03 207 0 +.0297 -.013 .0424 1 0 0 16 208 62 209 ?84 211 202 206 0 0 1 30 207 69
 0 211 206 215 0 +.0594 -.013 .0212 -327306316222039e-30 0 1 16 211 67 213 ?212
 214 208 207 0 0 1 30 215 281 0 216 207 220 0 +-.01 0 .0212 -1946003899332955e-3
1 0 1 16 216 233 217 ?218 219 175 215 0 0 1 30 220 280 0 219 215 222 0 +.0297 0
 -.01 1 0 0 16 219 229 225 ?73 224 216 220 0 0 1 30 222 279 0 224 220 221 0 +.06
94 0 .0212 0 0 1 16 224 225 223 ?226 227 219 222 0 0 1 30 221 278 0 227 222 229
 0 +.0297 0 .0524 1 0 0 16 227 221 228 ?230 231 224 221 0 0 1 31 229 277 0 231 2
21 235 0 +.0644 0 .0474 0 -1 0 0 0 -1 .00145 16 231 217 233 ?232 234 227 229 0 0
 1 31 235 276 0 234 229 240 0 +.0644 0 -.005 0 -1 0 0 0 -1 .00145 16 234 213 236
 ?238 171 231 235 0 0 1 31 240 275 0 171 235 172 0 +-.005 0 -.005 0 -1 0 0 0 -1
 .00145 16 171 209 237 ?239 162 234 240 0 0 1 31 172 274 0 162 240 241 0 +-.005
 0 .0474 0 -1 0 0 0 -1 .00145 30 241 342 0 245 172 242 0 +.0594 -.013 0 0 1 0 16
 245 290 243 ?49 244 21 241 0 0 1 30 242 343 0 244 241 246 0 +.0594 -.013 .0424
 0 1 0 16 244 291 250 ?109 30 245 242 0 0 1 30 246 344 0 30 242 29 0 +-693889390
390723e-32 -.013 .0424 0 1 0 16 30 292 248 ?247 11 244 246 0 0 1 30 29 345 0 11
 246 249 0 +0 -.013 0 0 1 0 30 249 346 0 214 29 254 0 +-.01 -.013 .0524 0 1 0 16
 214 294 255 ?63 252 211 249 0 0 1 30 254 347 0 252 249 22 0 +.0694 -.013 .0524
 0 1 0 16 252 295 253 ?67 251 214 254 0 0 1 30 22 348 0 251 254 8 0 +.0694 -.013
 -.01 0 1 0 16 251 296 258 ?260 21 252 22 0 0 1 81 1 258 406 35 251 0 0 256 255
 259 17 260 0 257 226 261 69 265 251 0 263 +16 21 297 256 ?80 245 251 8 0 0 1 81
 1 256 405 35 21 0 0 97 258 262 17 80 0 264 73 266 72 110 21 0 270 +15 264 326 0
 73 268 0 17 73 0 264 265 80 69 270 219 0 260 +17 266 0 264 80 265 65 102 169 0
 267 -17 110 0 146 170 269 65 80 21 0 266 -17 270 0 271 218 263 72 73 219 0 269
 -15 271 183 0 218 275 272 17 218 0 271 230 270 61 269 216 0 273 +17 263 0 271 2
70 230 69 226 224 0 0 -17 269 0 146 110 63 72 218 216 0 0 -17 63 0 146 269 96 61
 151 214 0 218 +17 151 0 274 157 273 91 63 214 0 160 -15 274 322 0 273 277 0 17
 157 0 274 67 151 100 160 159 0 0 +17 273 0 274 151 67 61 230 227 0 0 -17 67 0 2
74 273 157 66 280 252 0 226 +17 230 0 271 263 218 66 273 227 0 0 +17 280 0 257 2
61 226 100 67 252 0 157 -17 226 0 257 280 260 66 263 224 0 230 +15 257 324 0 226
 279 0 14 255 279 325 276 ?278 268 257 6 281 -0 0 278 268 24 81 1 276 986 282 27
9 284 0 283 285 286 14 278 307 285 ?290 279 288 6 287 +0 0 290 279 24 14 268 327
 283 ?279 19 264 6 20 -0 0 279 19 24 50 281 339 0 279 289 20 0 +.0694 -.013 .021
2 -1 0 0 0 0 1 13 24 114 0 0 0 0 0 0 10 17 14 17 1 295 ?291 0 293 6 292 +0 0 291
 0 24 81 1 295 980 282 17 294 0 0 296 300 14 291 305 296 ?297 17 48 6 298 +0 0 2
97 17 24 15 293 7 0 299 17 301 50 292 3 0 17 305 303 0 +.0297 -.013 .0212 0 -1 0
 1 0 0 50 305 634 0 302 304 292 0 +.0297 -.003 .0212 0 -1 0 1 0 0 50 303 269 0 2
75 292 309 0 +.0297 0 .0212 0 -1 0 1 0 0 14 275 168 310 ?302 307 271 6 303 -0 0
 302 307 24 50 309 330 0 307 303 308 0 +.0594 -.013 .0212 -1 0 -327306316222039e
-30 -327306316222039e-30 0 1 14 307 299 306 ?275 277 313 6 309 +0 0 275 277 24 5
0 308 331 0 315 309 311 0 +.0297 -.013 .0424 0 0 1 1 0 0 14 315 301 314 ?19 297
 312 6 308 -0 0 19 297 24 50 311 332 0 297 308 298 0 +0 -.013 .0212 -1 0 0 0 0 1
 14 297 303 316 ?315 291 320 6 311 -0 0 315 291 24 50 298 333 0 291 311 287 0 +.
0297 -.013 0 0 0 1 1 0 0 51 255 287 334 0 278 298 318 0 --.005 -.013 .0474 0 1 0
 .00145 0 0 1 51 318 335 0 290 287 317 0 --.005 -.013 -.005 0 1 0 .00145 0 0 1 1
4 290 311 319 ?321 278 325 6 318 +0 0 321 278 24 51 317 336 0 321 318 323 0 -.06
44 -.013 -.005 0 1 0 .00145 0 0 1 14 321 315 322 ?324 290 326 6 317 +0 0 324 290
 24 51 323 337 0 324 317 289 0 -.0644 -.013 .0474 0 1 0 .00145 0 0 1 14 324 319
 330 ?277 321 327 6 323 +0 0 277 321 24 50 289 338 0 277 323 281 0 +.0297 -.013
 .0524 0 0 1 1 0 0 14 277 323 328 ?307 324 274 6 289 +0 0 307 324 24 81 1 328 99
1 282 277 329 0 330 306 332 80 7 CCCCCDI12 legal_owners0 17 1 lCZ1 282 0 335 800
1 0 0 0 0 3 5 0 0 0 FFFFTFTFFFFFFFFFF2 81 1 329 440 35 277 0 328 334 284 331 81
 1 330 990 282 324 333 0 322 328 336 81 1 306 992 282 307 337 0 328 310 339 83 2
55 3 332 .615686274509804 .811764705882353 .929411764705882 81 1 337 702 35 307
 0 306 338 117 340 81 1 310 993 282 275 341 0 306 345 343 83 3 339 .615686274509
804 .811764705882353 .929411764705882 81 1 341 698 35 275 0 310 250 342 344 81 1
 345 994 282 302 350 0 310 346 348 83 3 343 .615686274509804 .811764705882353 .9
29411764705882 14 302 619 345 ?347 275 349 6 305 +0 0 347 275 24 81 1 350 621 35
 302 0 345 351 44 355 81 1 346 995 282 347 352 0 345 353 354 83 3 348 .615686274
509804 .811764705882353 .929411764705882 14 347 895 346 ?138 302 356 6 360 -0 0
 138 302 24 81 1 352 969 35 347 0 346 358 294 357 81 1 353 996 282 138 359 0 346
 364 365 83 3 354 .615686274509804 .811764705882353 .929411764705882 14 138 891
 353 ?362 347 38 6 304 -0 0 362 347 24 81 1 359 967 35 138 0 353 363 358 361 81
 1 364 997 282 362 358 0 353 0 368 83 3 365 .615686274509804 .811764705882353 .9
29411764705882 14 362 899 364 ?0 138 370 6 366 +0 0 0 138 24 81 1 358 968 35 362
 0 364 359 352 369 83 3 368 .615686274509804 .811764705882353 .929411764705882 8
0 1 35 367 371 9000 0 0 0 0 3 6 0 0 0 FFTFTFTTFFFFFFFFF1 82 255 3 369 19 1 2 79
 255 9 371 BTI/DetId15 370 886 0 130 362 0 50 366 916 0 362 0 360 0 +.015 -.0107
5 .0152019595699929 -1946003899332955e-31 0 1 1 0 1946003899332955e-31 50 360 91
5 0 347 366 304 0 +.015 -.0085 .0212019595699929 562629774752548e-46 1 -28912057
9329468e-30 0 289120579329468e-30 1 50 304 914 0 138 360 305 0 +.015 -.01075 .02
72019595699929 -1946003899332955e-31 0 1 1 0 1946003899332955e-31 17 130 0 370 1
32 125 123 375 141 0 373 +17 132 0 370 127 130 129 373 372 0 153 +17 125 0 370 1
30 127 118 374 376 0 375 -17 375 0 320 380 378 118 130 141 0 158 -16 141 832 377
 ?130 139 140 379 0 0 1 17 373 0 356 111 153 123 132 372 0 378 -15 356 878 0 41
 347 0 17 111 0 356 41 373 112 378 381 0 40 -17 153 0 356 373 41 129 149 152 0 1
55 +16 372 826 363 ?132 148 376 385 0 0 1 17 378 0 320 375 137 123 111 381 0 0 +
15 320 302 0 142 297 0 17 137 0 320 378 142 112 119 139 0 0 +16 381 782 382 ?378
 383 139 384 0 0 1 81 1 382 964 35 381 0 0 377 387 390 16 383 527 389 ?53 55 381
 386 0 0 1 16 139 788 388 ?137 381 141 391 0 0 1 30 384 919 0 381 391 386 0 +0 -
.0085 .0212 0 -289120579329468e-30 -1 30 391 920 0 139 379 384 0 +0 -.013 .02720
19595699929 0 1 0 30 386 646 0 383 384 392 0 +0 -.003 .0212 0 0 1 30 392 645 0 5
5 386 176 0 +.0297 -.003 0 1 0 0 16 55 567 394 ?51 393 383 392 0 0 1 30 176 644
 0 393 392 174 0 +.0594 -.003 .0212 -327306316222039e-30 0 1 16 393 572 395 ?396
 175 55 176 0 0 1 81 1 395 693 35 393 0 0 389 25 400 17 396 0 349 398 51 77 56 3
93 0 0 +16 175 557 397 ?399 216 393 174 0 0 1 81 1 397 691 35 175 0 0 394 389 40
5 17 399 0 312 401 247 77 398 175 0 396 +15 312 300 0 247 315 0 17 401 0 312 403
 399 85 109 244 0 212 -17 247 0 312 399 403 42 402 30 0 398 +17 398 0 349 404 39
6 42 399 175 0 0 -15 349 622 0 404 302 0 17 404 0 349 51 398 34 53 383 0 0 -17 5
1 0 349 396 404 54 43 55 0 0 +17 53 0 320 402 27 42 404 383 0 247 +17 402 0 320
 142 53 89 247 30 0 0 -17 27 0 320 53 380 34 47 11 0 404 +17 380 0 320 27 375 86
 158 202 0 406 -17 47 0 48 201 43 86 27 11 0 380 -15 48 497 0 43 291 0 17 201 0
 48 49 47 58 406 196 0 410 +17 49 0 48 43 201 54 81 245 0 51 +17 406 0 144 158 4
10 86 201 196 0 0 -17 410 0 144 406 84 58 212 211 0 0 -17 84 0 144 410 88 85 403
 208 0 401 +17 212 0 313 109 81 85 410 211 0 0 +15 313 472 0 56 307 0 17 109 0 3
13 56 212 77 401 244 0 399 +17 81 0 313 212 56 58 49 245 0 201 -17 56 0 313 81 1
09 54 396 393 0 49 -17 88 0 144 84 136 89 142 204 0 403 +17 403 0 312 247 401 89
 84 208 0 402 -17 142 0 320 137 402 113 88 204 0 0 -16 204 724 407 ?88 202 196 2
03 202 202 1 81 1 407 974 35 204 0 0 210 164 408 81 1 210 973 35 202 0 0 409 407
 411 81 1 164 975 35 165 0 0 407 161 415 82 3 408 19 11 1 82 3 415 19 12 1 81 1
 409 972 35 297 0 316 413 210 412 82 3 411 19 10 1 81 1 316 982 282 297 409 0 29
6 314 414 81 1 413 971 35 19 0 419 294 409 420 82 3 412 19 5 2 14 19 329 419 ?26
8 315 146 6 7 +0 0 268 315 24 81 1 419 984 282 19 413 0 314 283 417 81 1 294 970
 35 17 0 295 352 413 418 82 3 420 19 4 2 82 3 418 19 3 2 81 1 314 983 282 315 33
8 0 316 419 416 81 1 283 985 282 268 334 0 419 276 423 83 3 417 .615686274509804
 .811764705882353 .929411764705882 81 1 334 439 35 268 0 283 197 329 425 83 3 42
3 .615686274509804 .811764705882353 .929411764705882 81 1 197 432 35 199 0 0 166
 334 421 82 3 425 6 6 2 81 1 166 431 35 162 0 0 192 197 424 82 3 421 6 31 1 81 1
 192 430 35 195 0 0 237 166 422 82 3 424 6 30 1 81 1 237 429 35 171 0 0 189 192
 426 82 3 422 6 29 1 81 1 189 428 35 187 0 0 236 237 430 82 3 426 6 28 1 81 1 23
6 427 35 234 0 0 186 189 428 82 3 430 6 27 1 81 1 186 426 35 182 0 0 233 236 427
 82 3 428 6 26 1 81 1 233 425 35 231 0 0 185 186 429 82 3 427 6 25 1 81 1 185 42
4 35 177 0 0 223 233 431 82 3 429 6 24 1 81 1 223 423 35 224 0 0 217 185 435 82
 3 431 6 23 1 81 1 217 421 35 216 0 0 183 223 433 82 3 435 6 22 1 81 1 183 420 3
5 159 0 0 228 217 432 82 3 433 6 20 1 81 1 228 419 35 227 0 0 178 183 434 82 3 4
32 6 19 1 81 1 178 418 35 169 0 0 225 228 436 82 3 434 6 18 1 81 1 225 417 35 21
9 0 0 213 178 440 82 3 436 6 17 1 81 1 213 416 35 211 0 0 209 225 437 82 3 440 6
 16 1 81 1 209 412 35 208 0 0 205 213 438 82 3 437 6 15 1 81 1 205 410 35 196 0
 0 253 209 439 82 3 438 6 11 1 81 1 253 408 35 252 0 0 255 205 442 82 3 439 6 9
 1 81 1 255 407 35 214 0 0 258 253 445 82 3 442 6 7 1 82 3 445 6 6 1 81 1 338 70
0 35 315 0 314 342 337 444 83 3 416 .615686274509804 .811764705882353 .929411764
705882 81 1 342 699 35 291 0 296 341 338 441 82 3 444 8 2 2 81 1 296 981 282 291
 342 0 295 316 443 82 3 441 8 1 2 83 3 443 .615686274509804 .811764705882353 .92
9411764705882 83 3 414 .615686274509804 .811764705882353 .929411764705882 17 158
 0 144 374 406 118 380 202 0 0 +17 374 0 144 267 158 126 125 376 0 170 +17 267 0
 144 102 374 65 170 165 0 0 -16 376 829 446 ?374 372 447 449 0 0 1 17 170 0 146
 155 110 126 267 165 0 0 +17 155 0 146 149 170 129 127 447 0 0 +17 127 0 370 125
 132 126 155 447 0 374 -16 447 799 448 ?155 376 152 450 0 0 1 81 1 448 960 35 44
7 0 0 154 451 455 16 152 846 451 ?153 447 37 453 0 0 1 30 450 926 0 447 453 449
 0 +-.01 -.01075 .0152019595699929 0 1 0 30 453 927 0 152 156 450 0 +-.01 -.0085
 .0212019595699929 1946003899332955e-31 -289120579329468e-30 -1 30 449 925 0 376
 450 385 0 +.015 -.013 .0152019595699929 -1 0 -1946003899332955e-31 30 385 924 0
 372 449 452 0 +.015 -.0085 .0152019595699929 -1 0 -1946003899332955e-31 30 452
 923 0 148 385 150 0 +.015 -.0085 .0272019595699929 -1 0 -1946003899332955e-31 1
6 148 820 387 ?41 140 372 452 0 0 1 30 150 922 0 140 452 379 0 +.015 -.013 .0272
019595699929 -1 0 -1946003899332955e-31 30 379 921 0 141 150 391 0 +0 -.013 .015
2019595699929 0 1 0 81 1 387 965 35 148 0 0 382 363 454 17 41 0 356 153 111 12 4
0 148 0 149 +17 40 0 38 119 28 112 41 148 0 137 -81 1 363 966 35 372 0 0 387 359
 460 82 3 454 19 8 1 82 3 460 19 9 1 30 156 928 0 37 0 453 0 +-.01 -.01075 .0272
019595699929 0 1 0 81 1 451 961 35 152 0 0 448 388 456 81 1 388 962 35 139 0 0 4
51 377 458 82 3 456 19 4 1 81 1 377 963 35 141 0 0 388 382 457 82 3 458 19 5 1 8
2 3 457 19 6 1 81 1 154 959 35 37 0 0 446 448 459 82 3 455 19 3 1 81 1 446 958 3
5 376 0 0 143 154 461 82 3 459 19 2 1 81 1 143 957 35 140 0 0 135 446 465 82 3 4
61 19 1 1 81 1 135 956 35 129 0 0 33 143 462 82 3 465 19 0 1 81 1 33 955 35 126
 0 0 26 135 463 82 3 462 19 7 0 82 3 463 19 6 0 17 102 0 144 99 267 101 266 169
 0 265 +17 99 0 144 160 102 100 261 177 0 280 +17 265 0 264 266 73 101 260 251 0
 261 -17 261 0 257 260 280 101 99 177 0 0 -81 1 394 690 35 55 0 0 108 397 464 81
 1 389 692 35 383 0 0 397 395 466 82 3 405 8 1 1 82 3 466 8 2 1 81 1 108 689 35
 77 0 0 52 394 470 82 3 464 8 0 1 81 1 52 688 35 42 0 0 46 108 468 82 3 470 8 3
 0 81 1 46 687 35 54 0 0 45 52 467 82 3 468 8 2 0 82 3 467 8 1 0 81 1 25 694 35
 11 0 0 395 243 469 82 3 400 8 3 1 81 1 243 695 35 245 0 0 25 248 474 82 3 469 8
 4 1 81 1 248 696 35 30 0 0 243 250 475 82 3 474 8 5 1 81 1 250 697 35 244 0 0 2
48 341 472 82 3 475 8 6 1 82 3 472 8 7 1 82 3 390 19 7 1 82 3 361 19 0 2 82 3 35
7 19 2 2 81 1 351 446 35 278 0 285 473 350 471 81 1 44 685 35 1 0 478 350 45 480
 82 3 355 7 2 2 81 1 478 977 476 1 44 14 0 0 479 82 3 480 6 0 3 80 1 476 477 481
 8038 0 0 0 0 0 0 0 0 0 TTTTTTTTTTTTTFTFT10 81 1 14 978 477 1 478 2 0 0 485 98 2
55 6 479 80 97 114 116 32 49 80 1 477 483 482 8017 0 0 0 0 0 0 0 0 0 TTTTTTTTTTT
TTFTFT3 84 255 6 485 Part 179 13 482 SDL/TYSA_NAME79 14 481 SDL/TYSA_UNAME81 1 2
85 987 282 278 351 0 276 319 484 81 1 473 445 35 290 0 319 486 351 490 82 3 471
 6 13 2 81 1 319 988 282 290 473 0 285 322 488 81 1 486 444 35 321 0 322 333 473
 487 82 3 490 6 12 2 81 1 322 989 282 321 486 0 319 330 489 81 1 333 443 35 324
 0 330 284 486 491 82 3 487 6 11 2 81 1 284 442 35 279 0 276 329 333 495 82 3 49
1 6 10 2 82 3 495 6 9 2 83 3 489 .615686274509804 .811764705882353 .929411764705
882 83 3 488 .615686274509804 .811764705882353 .929411764705882 83 3 484 .615686
274509804 .811764705882353 .929411764705882 82 3 344 8 0 2 81 1 117 949 35 113 0
 0 337 121 492 82 3 340 8 4 2 81 1 121 950 35 118 0 0 117 114 493 82 3 492 19 0
 0 81 1 114 951 35 112 0 0 121 124 494 82 3 493 19 1 0 81 1 124 952 35 123 0 0 1
14 32 497 82 3 494 19 2 0 82 3 497 19 3 0 83 3 336 .615686274509804 .81176470588
2353 .929411764705882 82 3 331 6 7 2 79 15 335 SDL/TYSA_COLOUR15 327 318 0 190 3
24 500 17 190 0 327 190 190 0 299 182 0 0 +15 500 320 0 499 324 0 17 499 0 500 4
99 499 0 232 231 0 0 -17 232 0 272 232 232 0 499 231 0 0 +15 272 184 0 232 275 4
96 15 496 185 0 238 275 498 17 238 0 496 238 238 0 501 234 0 0 +15 498 186 0 239
 275 502 17 239 0 498 239 239 0 504 171 0 0 +15 502 187 0 168 275 0 17 168 0 502
 168 168 0 503 162 0 0 +17 503 0 505 503 503 0 168 162 0 0 -15 505 308 0 503 278
 0 17 504 0 506 504 504 0 239 171 0 0 -15 506 312 0 504 290 0 17 501 0 510 501 5
01 0 238 234 0 0 -15 510 316 0 501 321 0 17 299 0 293 299 299 0 190 182 0 0 -15
 326 314 0 191 321 510 17 191 0 326 191 191 0 508 187 0 0 +17 508 0 301 508 508
 0 191 187 0 0 -15 301 8 0 508 17 507 15 507 9 0 509 17 515 17 509 0 507 509 509
 0 194 195 0 0 -15 515 10 0 511 17 144 17 511 0 515 511 511 0 198 199 0 0 -17 19
8 0 288 198 198 0 511 199 0 0 +15 288 306 0 198 278 505 17 194 0 325 194 194 0 5
09 195 0 0 +15 325 310 0 194 290 506 83 3 300 .615686274509804 .811764705882353
 .929411764705882 50 20 340 0 268 281 7 0 +.0297 -.013 -.01 0 0 1 1 0 0 83 3 286
 .615686274509804 .811764705882353 .929411764705882 81 1 97 400 35 100 0 0 68 25
6 513 82 3 262 6 4 1 81 1 68 399 35 66 0 0 92 97 512 82 3 513 6 15 0 81 1 92 398
 35 91 0 0 64 68 514 82 3 512 6 14 0 81 1 64 397 35 61 0 0 103 92 516 82 3 514 6
 13 0 81 1 103 396 35 101 0 0 71 64 520 82 3 516 6 12 0 81 1 71 395 35 69 0 0 10
6 103 517 82 3 520 6 11 0 81 1 106 394 35 65 0 0 76 71 518 82 3 517 6 10 0 81 1
 76 393 35 72 0 0 82 106 519 82 3 518 6 9 0 81 1 82 392 35 85 0 0 87 76 521 82 3
 519 6 8 0 81 1 87 390 35 89 0 0 79 82 525 82 3 521 6 7 0 81 1 79 388 35 58 0 0
 95 87 523 82 3 525 6 5 0 81 1 95 386 35 86 0 0 0 79 522 82 3 523 6 3 0 82 3 522
 6 1 0 82 3 259 6 5 1 82 3 167 19 13 1 82 3 134 19 4 0 82 3 50 8 0 0 82 3 31 19
 5 0 19 18 351 0 1 0 10 6 0 S0 74 4 CI16 index_map_offset0 0 1 dCCZ20 16 5 0 0 1
61 478 14 2 364 0 0 0 0 0 0 0 0 0 0 0 0 0 0 0 80 1 13 282 524 8040 0 0 0 0 3 5 0
 0 0 TTTFFFFFFFFFFFFFF2 83 3 15 .615686274509804 .811764705882353 .9294117647058
82 79 17 524 SDL/TYSA_COLOUR_21 0 
